<?xml version="1.0" encoding="UTF-8"?>
<!DOCTYPE svg PUBLIC "-//W3C//DTD SVG 1.1//EN" "http://www.w3.org/Graphics/SVG/1.1/DTD/svg11.dtd">
<!-- Creator: CorelDRAW -->
<svg xmlns="http://www.w3.org/2000/svg" xml:space="preserve" width="837.455mm" height="219.486mm" version="1.1" style="shape-rendering:geometricPrecision; text-rendering:geometricPrecision; image-rendering:optimizeQuality; fill-rule:evenodd; clip-rule:evenodd"
viewBox="0 0 205221.51 53785.83"
 xmlns:xlink="http://www.w3.org/1999/xlink"
 xmlns:xodm="http://www.corel.com/coreldraw/odm/2003">
 <defs>
  <style type="text/css">
   <![CDATA[
    .fil0 {fill:#091C47}
    .fil1 {fill:#D60313}
    .fil2 {fill:#F76A06}
   ]]>
  </style>
 </defs>
 <g id="Layer_x0020_1">
  <metadata id="CorelCorpID_0Corel-Layer"/>
  <g id="_2506299564976">
   <path class="fil0" d="M157581.58 28813.51c-575.44,0 -863.18,287.69 -863.18,863.15l0 18414.34c0,575.44 287.74,863.18 863.18,863.18l13436.71 0c6243.62,0 8804.39,-2503.22 8804.39,-8113.83l0 -3913.04c0,-5610.63 -2560.76,-8113.8 -8804.39,-8113.8l-13436.71 0zm3510.25 4430.91c0,-258.92 115.1,-374 374.05,-374l9437.31 0c3395.17,0 4546.06,1035.79 4546.06,4430.91l0 3164.97c0,3395.15 -1150.89,4430.96 -4546.06,4430.96l-9437.31 0c-258.95,0 -374.05,-115.1 -374.05,-374.05l0 -11278.79z"/>
   <path class="fil0" d="M139030.55 28813.51c-1208.38,0 -2100.38,431.54 -3021.1,2186.66l-9437.36 17292.26c-201.36,402.77 -115.05,661.74 345.28,661.74l3769.17 0c374.07,0 517.92,-86.33 661.79,-345.28l1870.2 -3510.22 13782.02 0 1898.97 3510.22c115.1,258.95 287.74,345.28 661.74,345.28l3654.12 0c460.33,0 546.67,-258.97 345.26,-661.74l-9523.64 -17292.26c-949.53,-1755.12 -1812.69,-2186.66 -3308.84,-2186.66l-1697.61 0zm-3797.94 12544.71l4430.96 -8257.67c86.33,-143.82 172.64,-201.36 316.46,-201.36l172.64 0c143.87,0 258.97,57.54 345.31,201.36l4459.73 8257.67 -9725.1 0z"/>
   <path class="fil0" d="M102122.74 28813.51c-575.44,0 -863.15,287.69 -863.15,863.15l0 18644.54c0,431.54 201.41,632.97 633.02,632.97l3107.35 0c431.61,0 633.02,-201.43 633.02,-632.97l0 -5581.88 9120.85 0 4574.83 5840.78c201.39,258.97 345.26,374.07 805.64,374.07l3855.48 0c460.38,0 604.2,-460.38 374.07,-748.08l-4805.04 -5955.88c2848.5,-575.48 4171.99,-2531.99 4171.99,-5869.6l0 -1668.79c0,-3970.58 -1898.97,-5898.32 -6186.06,-5898.32l-15422.01 0zm3510.25 10127.87l0 -5783.29c0,-230.13 115.1,-316.46 374.07,-316.46l10645.74 0c1927.76,0 2675.86,719.31 2675.86,2474.41l0 1208.46c0,1726.33 -719.33,2416.89 -2675.86,2416.89l-11019.82 0z"/>
   <path class="fil0" d="M128888.29 4831.58c-575.44,0 -863.18,287.69 -863.18,863.18l0 18644.52c0,431.56 201.43,632.97 633.02,632.97l3107.38 0c431.61,0 633.02,-201.41 633.02,-632.97l0 -5581.86 9120.85 0 4574.83 5840.78c201.36,258.95 345.23,374.05 805.61,374.05l3855.5 0c460.38,0 604.2,-460.38 374.05,-748.08l-4805.01 -5955.86c2848.5,-575.48 4171.99,-2532.02 4171.99,-5869.62l0 -1668.77c0,-3970.6 -1898.97,-5898.34 -6186.06,-5898.34l-15422.01 0zm3510.25 10127.9l0 -5783.29c0,-230.15 115.1,-316.46 374.05,-316.46l10645.77 0c1927.74,0 2675.86,719.28 2675.86,2474.38l0 1208.46c0,1726.33 -719.33,2416.92 -2675.86,2416.92l-11019.82 0z"/>
   <path class="fil0" d="M111020.59 4831.58c-1208.41,0 -2100.38,431.56 -3021.1,2186.66l-9437.36 17292.26c-201.36,402.79 -115.05,661.74 345.28,661.74l3769.17 0c374.05,0 517.92,-86.31 661.79,-345.28l1870.2 -3510.2 13782.02 0 1898.97 3510.2c115.1,258.97 287.74,345.28 661.74,345.28l3654.12 0c460.33,0 546.67,-258.95 345.26,-661.74l-9523.64 -17292.26c-949.53,-1755.1 -1812.71,-2186.66 -3308.84,-2186.66l-1697.61 0zm-3797.94 12544.74l4430.96 -8257.7c86.33,-143.8 172.64,-201.36 316.46,-201.36l172.64 0c143.87,0 258.97,57.56 345.28,201.36l4459.76 8257.7 -9725.1 0z"/>
   <path class="fil0" d="M191928.67 28813.51c-5840.85,0 -8056.34,2100.38 -8056.34,7595.88l0 4948.83c0,5495.55 2215.48,7595.95 8056.34,7595.95l12659.82 0c402.84,0 633.02,-201.43 633.02,-632.97l0 -2790.97c0,-402.79 -230.18,-632.97 -633.02,-632.97l-12631.1 0c-2963.56,0 -3740.4,-834.38 -3740.4,-3855.5l0 -345.28 16198.86 0c402.82,0 633.02,-201.41 633.02,-632.97l0 -2560.76c0,-431.56 -230.2,-632.97 -633.02,-632.97l-16198.86 0 0 -143.87c0,-3021.1 776.84,-3855.48 3740.4,-3855.48l12631.1 0c402.84,0 633.02,-230.2 633.02,-633.05l0 -2790.89c0,-431.61 -230.18,-632.97 -633.02,-632.97l-12659.82 0z"/>
   <path class="fil0" d="M74824.94 28813.51c-402.84,0 -633.02,201.36 -633.02,632.97l0 2819.69c0,431.59 230.18,633.02 633.02,633.02l9063.31 0 0 15422.01c0,431.54 230.18,632.97 632.97,632.97l3136.2 0c431.59,0 604.23,-201.43 604.23,-632.97l0 -15422.01 9063.31 0c431.56,0 661.74,-201.43 661.74,-633.02l0 -2819.69c0,-431.61 -230.18,-632.97 -661.74,-632.97l-22500.02 0z"/>
   <path class="fil1" d="M204933.77 16462.39l0 -4034.93c0,-56.83 -0.59,-112.77 -1.05,-168.87l-4409.32 0c5.42,155.19 8.18,316.73 8.18,485.38l0 3718.42 4402.19 0z"/>
   <path class="fil0" d="M188015.63 4831.58c-5840.85,0 -8056.34,2100.4 -8056.34,7595.88l0 4948.86c0,5495.55 2215.48,7595.93 8056.34,7595.93l8861.88 0c5689.17,0 7938.47,-1966.02 8051.39,-7173.29l-4417.29 0c-141.59,2420.47 -1074.63,3116.37 -3806.74,3116.37l-8545.41 0c-2992.35,0 -3826.73,-834.38 -3826.73,-3855.48l0 -4315.89c0,-3021.1 834.38,-3855.48 3826.73,-3855.48l8545.41 0c2271.11,0 3298.91,481.02 3662.57,2033.53l4502.74 0c-398.6,-4399.47 -2716.25,-6090.44 -7992.67,-6090.44l-8861.88 0z"/>
   <path class="fil0" d="M161372.36 4831.58c-5840.83,0 -8056.31,2071.61 -8056.31,7595.88l0 4948.86c0,5524.32 2215.48,7595.93 8056.31,7595.93l11595.25 0c2330.58,0 3567.81,-1179.66 3567.81,-4402.19l0 -6847.8c0,-575.48 -287.74,-863.18 -863.18,-863.18l-11998.12 0c-402.79,0 -632.97,230.2 -632.97,632.97l0 2531.99c0,431.56 230.18,632.97 632.97,632.97l8430.31 0c230.2,0 345.31,115.1 345.31,402.84l0 2129.15c0,1294.74 -431.61,1726.33 -1438.64,1726.33l-9494.92 0c-2963.56,0 -3826.71,-863.15 -3826.71,-3913.02l0 -4143.25c0,-3049.86 863.15,-3941.81 3826.71,-3941.81l14414.99 0c402.82,0 633.02,-201.41 633.02,-633.02l0 -2819.69c0,-431.61 -230.2,-632.97 -633.02,-632.97l-14558.81 0z"/>
   <path class="fil0" d="M83284.04 4831.58c-5840.83,0 -8056.31,2071.61 -8056.31,7595.88l0 4948.86c0,5524.32 2215.48,7595.93 8056.31,7595.93l12947.56 0c431.61,0 632.97,-201.41 632.97,-632.97l0 -2819.73c0,-431.54 -201.36,-632.97 -632.97,-632.97l-12803.74 0c-2963.56,0 -3826.73,-891.92 -3826.73,-3941.81l0 -4085.68c0,-3049.86 863.18,-3941.81 3826.73,-3941.81l12803.74 0c431.61,0 632.97,-201.41 632.97,-633.02l0 -2819.69c0,-431.61 -201.36,-632.97 -632.97,-632.97l-12947.56 0z"/>
   <g>
    <path class="fil0" d="M12304.05 18538.58l3525.1 -480.7c0,0 4406.38,-14741.38 23874.6,-14821.48 0,0 10801.33,243.04 17525.68,10602.13l-242.36 484.64 -49372.29 7935.87c0,0 -1332.72,7087.83 -121.13,10722.59l53249.38 -19567.19c0,0 -8699.21,-15308.31 -26394.46,-13218.37 -17695.25,2089.96 -22044.52,18342.51 -22044.52,18342.51z"/>
    <path class="fil1" d="M63388.28 13783.07l-63388.28 28653.69c0,0 1357.52,6611.77 7279.17,11349.07l56109.11 -40002.76z"/>
    <path class="fil2" d="M62455.36 16444.4l-39988.87 32882.75c23631.58,13281.98 48639.73,-6069.17 39988.87,-32882.75zm-2782.46 3385.83l-23810.74 30817.05c16186.19,1298.42 30679.1,-15995.71 23810.74,-30817.05z"/>
   </g>
  </g>
 </g>
</svg>
