<?xml version="1.0" encoding="UTF-8"?>
<svg version="1.1" xmlns="http://www.w3.org/2000/svg" width="500" height="500">
<path d="M0 0 C0.93779297 -0.01611328 1.87558594 -0.03222656 2.84179688 -0.04882812 C9.13885381 -0.05320412 14.24286338 0.9322318 20.0625 3.3125 C21.05636719 3.70308594 22.05023438 4.09367187 23.07421875 4.49609375 C31.40242293 8.39879965 37.68303833 13.82655715 44.45556641 19.90869141 C47.36475318 22.45014141 50.4692413 24.72979092 53.5859375 27.0078125 C54.07320312 27.43835938 54.56046875 27.86890625 55.0625 28.3125 C55.0625 28.9725 55.0625 29.6325 55.0625 30.3125 C55.660625 30.60125 56.25875 30.89 56.875 31.1875 C59.0625 32.3125 59.0625 32.3125 62.0625 34.3125 C62.0625 34.9725 62.0625 35.6325 62.0625 36.3125 C62.62453125 36.5703125 63.1865625 36.828125 63.765625 37.09375 C66.32954579 38.45419777 68.51476365 40.04038962 70.8125 41.8125 C72.01132812 42.72515625 72.01132812 42.72515625 73.234375 43.65625 C73.83765625 44.2028125 74.4409375 44.749375 75.0625 45.3125 C75.0625 45.9725 75.0625 46.6325 75.0625 47.3125 C75.60390625 47.5496875 76.1453125 47.786875 76.703125 48.03125 C79.69500137 49.65597757 82.17409399 51.6626877 84.8125 53.8125 C85.79734375 54.6065625 86.7821875 55.400625 87.796875 56.21875 C88.54453125 56.9096875 89.2921875 57.600625 90.0625 58.3125 C90.0625 58.9725 90.0625 59.6325 90.0625 60.3125 C90.62453125 60.5703125 91.1865625 60.828125 91.765625 61.09375 C94.32954579 62.45419777 96.51476365 64.04038962 98.8125 65.8125 C99.61171875 66.4209375 100.4109375 67.029375 101.234375 67.65625 C101.83765625 68.2028125 102.4409375 68.749375 103.0625 69.3125 C103.0625 69.9725 103.0625 70.6325 103.0625 71.3125 C103.7225 71.3125 104.3825 71.3125 105.0625 71.3125 C105.0625 71.9725 105.0625 72.6325 105.0625 73.3125 C106.114375 73.6528125 106.114375 73.6528125 107.1875 74 C110.80378535 75.65091288 113.15019976 77.6033835 116.0625 80.3125 C116.0625 80.9725 116.0625 81.6325 116.0625 82.3125 C116.7225 82.3125 117.3825 82.3125 118.0625 82.3125 C118.0625 82.9725 118.0625 83.6325 118.0625 84.3125 C119.7125 84.9725 121.3625 85.6325 123.0625 86.3125 C123.0625 86.9725 123.0625 87.6325 123.0625 88.3125 C123.92875 88.7146875 123.92875 88.7146875 124.8125 89.125 C127.11800043 90.34179189 129.08306192 91.61583879 131.0625 93.3125 C131.0625 93.9725 131.0625 94.6325 131.0625 95.3125 C131.660625 95.60125 132.25875 95.89 132.875 96.1875 C135.0625 97.3125 135.0625 97.3125 138.0625 99.3125 C138.0625 99.9725 138.0625 100.6325 138.0625 101.3125 C138.68125 101.621875 139.3 101.93125 139.9375 102.25 C141.3125 102.9375 142.6875 103.625 144.0625 104.3125 C144.0625 104.9725 144.0625 105.6325 144.0625 106.3125 C144.7225 106.3125 145.3825 106.3125 146.0625 106.3125 C146.0625 106.9725 146.0625 107.6325 146.0625 108.3125 C147.7125 108.9725 149.3625 109.6325 151.0625 110.3125 C151.0625 110.9725 151.0625 111.6325 151.0625 112.3125 C151.7225 112.3125 152.3825 112.3125 153.0625 112.3125 C153.0625 112.9725 153.0625 113.6325 153.0625 114.3125 C153.68125 114.621875 154.3 114.93125 154.9375 115.25 C156.3125 115.9375 157.6875 116.625 159.0625 117.3125 C159.0625 117.9725 159.0625 118.6325 159.0625 119.3125 C159.7225 119.3125 160.3825 119.3125 161.0625 119.3125 C174.61687451 133.90034588 176.3758206 151.59475631 176.32128906 170.63085938 C176.3240052 172.23875588 176.3275696 173.84665113 176.33190918 175.45454407 C176.34096146 179.78717716 176.33751874 184.11971411 176.33115101 188.45234871 C176.32605367 193.00709397 176.33079277 197.56183153 176.33392334 202.11657715 C176.33755217 209.76246606 176.33279241 217.40831621 176.32324219 225.05419922 C176.31235974 233.86790813 176.31588608 242.68152448 176.326895 251.49523115 C176.33599884 259.09051027 176.33723805 266.68576167 176.33201766 274.28104448 C176.32891494 278.80511013 176.32844157 283.32913241 176.33509064 287.85319519 C176.34090872 292.10833716 176.33678639 296.36336089 176.32530212 300.61849022 C176.32267923 302.17118827 176.32337955 303.72389645 176.32782745 305.27659035 C176.37901234 324.97498555 173.40677093 340.89613419 159.3125 355.375 C155.35480769 359.3125 155.35480769 359.3125 153.0625 359.3125 C153.0625 359.9725 153.0625 360.6325 153.0625 361.3125 C138.8108867 370.09379708 123.82376288 372.98482362 107.27148438 369.77050781 C99.76175074 367.92672016 92.55955774 365.34485909 85.41015625 362.421875 C79.43212845 360.00288601 73.3259784 357.97871372 67.20483398 355.95800781 C65.26235288 355.31657906 63.32150333 354.67040063 61.38085938 354.0234375 C55.29296478 352.00054372 49.193916 350.03685692 43.05078125 348.1875 C38.56651617 346.82374623 34.36530742 345.17592053 30.0625 343.3125 C25.89761534 341.88657135 21.69996061 340.56845007 17.5 339.25 C15.29028069 338.55104642 13.08064264 337.85183589 10.87109375 337.15234375 C9.89970459 336.84675537 8.92831543 336.54116699 7.92749023 336.22631836 C5.89327519 335.57748436 3.87347811 334.88265429 1.86547852 334.15673828 C-1.73103449 333.07349275 -3.04911668 333.71871138 -6.4375 335.25 C-13.545821 338.24600135 -20.78745105 340.54652107 -28.15820312 342.81225586 C-29.06248047 343.09335205 -29.96675781 343.37444824 -30.8984375 343.6640625 C-32.10185791 344.03265381 -32.10185791 344.03265381 -33.32958984 344.40869141 C-35.96670825 345.32262254 -38.49128986 346.42050918 -41.04852295 347.53485107 C-44.35112383 348.89445681 -47.7484318 349.94526674 -51.15234375 351.01953125 C-52.74284071 351.52929012 -54.33333542 352.03905598 -55.92382812 352.54882812 C-58.38449298 353.33290521 -60.84557628 354.11565093 -63.30688477 354.89770508 C-73.12370453 358.02236694 -82.84185211 361.29256369 -92.46069336 364.9855957 C-108.93705353 371.27370873 -126.42249163 373.73096391 -143.12890625 366.69140625 C-146.51345507 365.02972929 -149.7648255 363.35207646 -152.9375 361.3125 C-152.9375 360.6525 -152.9375 359.9925 -152.9375 359.3125 C-153.50726563 359.06371094 -154.07703125 358.81492187 -154.6640625 358.55859375 C-163.77686659 353.56377501 -169.67802882 343.96686413 -172.93359375 334.37890625 C-174.92223567 327.36632683 -176.05997239 320.64248364 -176.07794189 313.33848572 C-176.08091302 312.66057828 -176.08388414 311.98267084 -176.0869453 311.28422076 C-176.09557794 309.0253239 -176.09713593 306.76648037 -176.09863281 304.50756836 C-176.10326495 302.88247567 -176.10829015 301.25738406 -176.11367798 299.6322937 C-176.12676852 295.22489229 -176.13324076 290.8175061 -176.13768864 286.4100883 C-176.14062565 283.65173754 -176.1447317 280.89339088 -176.14919281 278.13504219 C-176.16286086 269.49114659 -176.17253009 260.84726043 -176.1763947 252.20335478 C-176.18086953 242.25118589 -176.19839361 232.29915475 -176.2273953 222.34702772 C-176.24907405 214.63805964 -176.25910233 206.92913014 -176.26043582 199.22013193 C-176.2614797 194.62380675 -176.26729791 190.02761116 -176.28525543 185.43131828 C-176.30184289 181.10153743 -176.30384035 176.77198211 -176.29511642 172.44218063 C-176.29435164 170.86248606 -176.29861403 169.28277882 -176.30857468 167.70311546 C-176.40646555 151.1960598 -173.68995728 136.82371686 -163.9375 123.3125 C-163.421875 122.56484375 -162.90625 121.8171875 -162.375 121.046875 C-161.900625 120.47453125 -161.42625 119.9021875 -160.9375 119.3125 C-160.2775 119.3125 -159.6175 119.3125 -158.9375 119.3125 C-158.9375 118.6525 -158.9375 117.9925 -158.9375 117.3125 C-155.47596154 114.3125 -155.47596154 114.3125 -152.9375 114.3125 C-152.9375 113.6525 -152.9375 112.9925 -152.9375 112.3125 C-152.2775 112.3125 -151.6175 112.3125 -150.9375 112.3125 C-150.9375 111.6525 -150.9375 110.9925 -150.9375 110.3125 C-148.4625 109.3225 -148.4625 109.3225 -145.9375 108.3125 C-145.9375 107.6525 -145.9375 106.9925 -145.9375 106.3125 C-145.2775 106.3125 -144.6175 106.3125 -143.9375 106.3125 C-143.9375 105.6525 -143.9375 104.9925 -143.9375 104.3125 C-140.47596154 101.3125 -140.47596154 101.3125 -137.9375 101.3125 C-137.9375 100.6525 -137.9375 99.9925 -137.9375 99.3125 C-133.46691176 95.3125 -133.46691176 95.3125 -130.9375 95.3125 C-130.9375 94.6525 -130.9375 93.9925 -130.9375 93.3125 C-125.46130952 88.3125 -125.46130952 88.3125 -122.9375 88.3125 C-122.9375 87.6525 -122.9375 86.9925 -122.9375 86.3125 C-120.4625 85.3225 -120.4625 85.3225 -117.9375 84.3125 C-117.9375 83.6525 -117.9375 82.9925 -117.9375 82.3125 C-117.2775 82.3125 -116.6175 82.3125 -115.9375 82.3125 C-115.9375 81.6525 -115.9375 80.9925 -115.9375 80.3125 C-114.0390625 78.5859375 -114.0390625 78.5859375 -111.5625 76.6875 C-110.75039062 76.05585938 -109.93828125 75.42421875 -109.1015625 74.7734375 C-106.9375 73.3125 -106.9375 73.3125 -104.9375 73.3125 C-104.9375 72.6525 -104.9375 71.9925 -104.9375 71.3125 C-104.2775 71.3125 -103.6175 71.3125 -102.9375 71.3125 C-102.9375 70.6525 -102.9375 69.9925 -102.9375 69.3125 C-100.85546875 67.40234375 -100.85546875 67.40234375 -98.125 65.25 C-97.23167969 64.53714844 -96.33835937 63.82429688 -95.41796875 63.08984375 C-92.9375 61.3125 -92.9375 61.3125 -89.9375 60.3125 C-89.9375 59.6525 -89.9375 58.9925 -89.9375 58.3125 C-88.24475716 56.74817213 -86.48180148 55.25921428 -84.6875 53.8125 C-83.71296875 53.0184375 -82.7384375 52.224375 -81.734375 51.40625 C-79.48855238 49.72501966 -77.4909197 48.43114101 -74.9375 47.3125 C-74.9375 46.6525 -74.9375 45.9925 -74.9375 45.3125 C-72.85546875 43.40234375 -72.85546875 43.40234375 -70.125 41.25 C-69.23167969 40.53714844 -68.33835937 39.82429688 -67.41796875 39.08984375 C-64.9375 37.3125 -64.9375 37.3125 -61.9375 36.3125 C-61.9375 35.6525 -61.9375 34.9925 -61.9375 34.3125 C-57.46691176 30.3125 -57.46691176 30.3125 -54.9375 30.3125 C-54.9375 29.6525 -54.9375 28.9925 -54.9375 28.3125 C-53.20703125 26.75390625 -53.20703125 26.75390625 -50.75 24.875 C-47.70654899 22.5173971 -44.71136003 20.14486574 -41.8359375 17.5859375 C-29.23519818 6.40717673 -17.16250565 -0.05873547 0 0 Z M-19.9375 21.3125 C-19.9375 21.9725 -19.9375 22.6325 -19.9375 23.3125 C-20.659375 23.56 -21.38125 23.8075 -22.125 24.0625 C-26.2340392 25.88873964 -29.12875804 28.48190014 -32.25 31.6875 C-35.10051656 34.47172547 -38.10691266 36.69920499 -41.36328125 38.98046875 C-41.88277344 39.42003906 -42.40226562 39.85960938 -42.9375 40.3125 C-42.9375 40.9725 -42.9375 41.6325 -42.9375 42.3125 C-43.49953125 42.5703125 -44.0615625 42.828125 -44.640625 43.09375 C-47.20454579 44.45419777 -49.38976365 46.04038962 -51.6875 47.8125 C-52.48671875 48.4209375 -53.2859375 49.029375 -54.109375 49.65625 C-54.71265625 50.2028125 -55.3159375 50.749375 -55.9375 51.3125 C-55.9375 51.9725 -55.9375 52.6325 -55.9375 53.3125 C-56.52273437 53.57933594 -57.10796875 53.84617188 -57.7109375 54.12109375 C-59.97370373 55.33187217 -61.65633571 56.6661699 -63.5625 58.375 C-65.3556258 59.97628483 -66.78406316 61.23578158 -68.9375 62.3125 C-68.9375 62.9725 -68.9375 63.6325 -68.9375 64.3125 C-69.5975 64.3125 -70.2575 64.3125 -70.9375 64.3125 C-70.9375 64.9725 -70.9375 65.6325 -70.9375 66.3125 C-71.535625 66.60125 -72.13375 66.89 -72.75 67.1875 C-75.13077792 68.35992026 -75.13077792 68.35992026 -77.9375 70.3125 C-77.9375 70.9725 -77.9375 71.6325 -77.9375 72.3125 C-80.9375 73.8125 -80.9375 73.8125 -83.9375 75.3125 C-83.9375 75.9725 -83.9375 76.6325 -83.9375 77.3125 C-84.535625 77.60125 -85.13375 77.89 -85.75 78.1875 C-88.13077792 79.35992026 -88.13077792 79.35992026 -90.9375 81.3125 C-90.9375 81.9725 -90.9375 82.6325 -90.9375 83.3125 C-91.5975 83.3125 -92.2575 83.3125 -92.9375 83.3125 C-92.9375 83.9725 -92.9375 84.6325 -92.9375 85.3125 C-94.9375 86.3125 -96.9375 87.3125 -98.9375 88.3125 C-98.9375 88.9725 -98.9375 89.6325 -98.9375 90.3125 C-101.4125 91.3025 -101.4125 91.3025 -103.9375 92.3125 C-103.9375 92.9725 -103.9375 93.6325 -103.9375 94.3125 C-104.5975 94.3125 -105.2575 94.3125 -105.9375 94.3125 C-105.9375 94.9725 -105.9375 95.6325 -105.9375 96.3125 C-106.49953125 96.5703125 -107.0615625 96.828125 -107.640625 97.09375 C-110.20454579 98.45419777 -112.38976365 100.04038962 -114.6875 101.8125 C-115.48671875 102.4209375 -116.2859375 103.029375 -117.109375 103.65625 C-117.71265625 104.2028125 -118.3159375 104.749375 -118.9375 105.3125 C-118.9375 105.9725 -118.9375 106.6325 -118.9375 107.3125 C-119.52273437 107.57933594 -120.10796875 107.84617187 -120.7109375 108.12109375 C-122.97370373 109.33187217 -124.65633571 110.6661699 -126.5625 112.375 C-128.3556258 113.97628483 -129.78406316 115.23578158 -131.9375 116.3125 C-131.9375 116.9725 -131.9375 117.6325 -131.9375 118.3125 C-132.5975 118.3125 -133.2575 118.3125 -133.9375 118.3125 C-133.9375 118.9725 -133.9375 119.6325 -133.9375 120.3125 C-134.49953125 120.5703125 -135.0615625 120.828125 -135.640625 121.09375 C-138.20454579 122.45419777 -140.38976365 124.04038962 -142.6875 125.8125 C-143.48671875 126.4209375 -144.2859375 127.029375 -145.109375 127.65625 C-145.71265625 128.2028125 -146.3159375 128.749375 -146.9375 129.3125 C-146.9375 129.9725 -146.9375 130.6325 -146.9375 131.3125 C-147.5975 131.3125 -148.2575 131.3125 -148.9375 131.3125 C-148.9375 131.9725 -148.9375 132.6325 -148.9375 133.3125 C-149.5975 133.3125 -150.2575 133.3125 -150.9375 133.3125 C-152.09909158 135.47190784 -153.2413895 137.63845247 -154.375 139.8125 C-154.70048828 140.41320312 -155.02597656 141.01390625 -155.36132812 141.6328125 C-155.67392578 142.23867187 -155.98652344 142.84453125 -156.30859375 143.46875 C-156.7406311 144.28569336 -156.7406311 144.28569336 -157.18139648 145.11914062 C-160.00184266 153.30089343 -159.08595384 162.59138759 -159.08276367 171.13256836 C-159.08575926 172.7348895 -159.08916271 174.33720993 -159.09294128 175.93952942 C-159.10174319 180.27423636 -159.10411774 184.60892354 -159.10475707 188.94363856 C-159.10546955 191.65540123 -159.10760759 194.36715893 -159.11025429 197.07892036 C-159.11949397 206.54928021 -159.12359076 216.01962603 -159.12280273 225.48999023 C-159.12220179 234.30253325 -159.13276036 243.11501509 -159.1485464 251.92754263 C-159.16163956 259.50825186 -159.16698591 267.08894113 -159.16634732 274.66966158 C-159.16609293 279.19090306 -159.16891199 283.71209008 -159.17952538 288.23332024 C-159.18923671 292.48592801 -159.1892648 296.73842958 -159.18200874 300.99104118 C-159.18096678 302.5466121 -159.18330259 304.10218974 -159.1893692 305.65774918 C-159.24179782 320.0387099 -157.95358484 332.38926873 -147.5625 343.1875 C-139.61321103 350.66220456 -130.87127331 354.18930255 -119.9375 354.3125 C-111.29734336 353.49179911 -102.76140481 351.44492337 -94.81762695 347.93334961 C-90.76026953 346.18643778 -86.61516263 344.83112589 -82.40625 343.5 C-81.21412903 343.11751099 -81.21412903 343.11751099 -79.9979248 342.72729492 C-76.62994337 341.64680243 -73.25944743 340.57425065 -69.88916016 339.50097656 C-67.41479776 338.7117444 -64.94175961 337.91845891 -62.46875 337.125 C-61.71750854 336.88740967 -60.96626709 336.64981934 -60.19226074 336.4050293 C-55.64807341 334.94650204 -51.32192624 333.20906876 -46.9375 331.3125 C-44.53138184 330.45914334 -42.11543267 329.63310436 -39.69140625 328.83203125 C-39.03542953 328.61431564 -38.37945282 328.39660004 -37.70359802 328.17228699 C-35.6366651 327.48699974 -33.56837235 326.80592874 -31.5 326.125 C-30.0864959 325.65718086 -28.67308356 325.18908437 -27.25976562 324.72070312 C-23.82006393 323.58143149 -20.37913064 322.44593309 -16.9375 321.3125 C-19.84367542 319.04593156 -22.46026264 317.56816905 -25.9375 316.3125 C-25.9375 315.6525 -25.9375 314.9925 -25.9375 314.3125 C-27.65247772 312.72423778 -27.65247772 312.72423778 -29.8125 311.1875 C-30.89144531 310.37925781 -30.89144531 310.37925781 -31.9921875 309.5546875 C-33.83376006 308.13310368 -33.83376006 308.13310368 -35.9375 308.3125 C-36.4325 306.8275 -36.4325 306.8275 -36.9375 305.3125 C-38.50266672 303.92095818 -40.13141927 302.6002947 -41.7890625 301.3203125 C-47.51056848 296.74939712 -52.73390414 291.82322782 -57.89208984 286.61865234 C-59.32557586 285.17432525 -60.76961776 283.74116367 -62.21484375 282.30859375 C-69.91588695 274.58612901 -69.91588695 274.58612901 -72.9765625 270.1328125 C-73.62367188 269.20210937 -74.27078125 268.27140625 -74.9375 267.3125 C-75.5975 267.3125 -76.2575 267.3125 -76.9375 267.3125 C-77.9275 264.8375 -77.9275 264.8375 -78.9375 262.3125 C-79.5975 262.3125 -80.2575 262.3125 -80.9375 262.3125 C-81.19402344 261.75691406 -81.45054687 261.20132813 -81.71484375 260.62890625 C-83.10762541 257.99018572 -84.76876173 255.68072848 -86.5 253.25 C-96.38790797 238.51719723 -104.34831966 221.22893838 -104.9375 203.3125 C-104.96585938 202.48105469 -104.99421875 201.64960938 -105.0234375 200.79296875 C-105.0628035 198.2932278 -105.01897614 195.81110174 -104.9375 193.3125 C-104.92074219 192.46171875 -104.90398437 191.6109375 -104.88671875 190.734375 C-104.31865255 179.63273837 -100.20087016 169.5462764 -94.171875 160.30078125 C-92.78285553 158.23475939 -92.78285553 158.23475939 -91.9375 155.3125 C-91.2775 155.3125 -90.6175 155.3125 -89.9375 155.3125 C-88.58363064 153.66247172 -87.25071858 151.9950613 -85.9375 150.3125 C-85.2775 149.9825 -84.6175 149.6525 -83.9375 149.3125 C-83.9375 148.6525 -83.9375 147.9925 -83.9375 147.3125 C-83.421875 147.065 -82.90625 146.8175 -82.375 146.5625 C-79.78023303 145.27343878 -79.78023303 145.27343878 -76.8125 143.375 C-65.60759196 136.9721954 -53.26054003 136.30968199 -40.9375 139.3125 C-33.43175026 141.52826229 -27.14257361 145.49129677 -20.625 149.703125 C-18.17361076 151.48375401 -18.17361076 151.48375401 -15.9375 151.3125 C-15.9375 151.9725 -15.9375 152.6325 -15.9375 153.3125 C-14.2875 153.9725 -12.6375 154.6325 -10.9375 155.3125 C-10.9375 155.9725 -10.9375 156.6325 -10.9375 157.3125 C-9.29162025 159.05525776 -9.29162025 159.05525776 -7.1875 160.8125 C-6.49140625 161.4209375 -5.7953125 162.029375 -5.078125 162.65625 C-3.09289208 164.19226963 -1.21877955 165.2848966 1.0625 166.3125 C1.61679688 165.74660156 2.17109375 165.18070313 2.7421875 164.59765625 C3.46664062 163.86417969 4.19109375 163.13070312 4.9375 162.375 C5.65679687 161.64410156 6.37609375 160.91320312 7.1171875 160.16015625 C9.0625 158.3125 9.0625 158.3125 11.0625 157.3125 C11.0625 156.6525 11.0625 155.9925 11.0625 155.3125 C13.5375 154.3225 13.5375 154.3225 16.0625 153.3125 C16.0625 152.6525 16.0625 151.9925 16.0625 151.3125 C16.79082031 151.04179687 17.51914062 150.77109375 18.26953125 150.4921875 C20.97832335 149.34805433 23.27511741 148.016516 25.75 146.4375 C37.77180768 139.18905714 51.08680798 135.5164172 65.13671875 138.40625 C70.44593425 140.05076001 75.21754144 142.62734224 80.0625 145.3125 C81.39226842 145.98624933 82.72415457 146.65595318 84.0625 147.3125 C84.0625 147.9725 84.0625 148.6325 84.0625 149.3125 C85.71252828 150.66636936 87.3799387 151.99928142 89.0625 153.3125 C89.3925 153.9725 89.7225 154.6325 90.0625 155.3125 C90.7225 155.3125 91.3825 155.3125 92.0625 155.3125 C92.31 155.81136719 92.5575 156.31023437 92.8125 156.82421875 C93.84265995 158.87488091 94.88710629 160.91672418 95.9375 162.95703125 C96.64599851 164.34626994 97.35432699 165.73559535 98.0625 167.125 C98.41828125 167.81142578 98.7740625 168.49785156 99.140625 169.20507812 C108.00633048 186.68838165 106.32036443 207.67010157 100.37890625 225.8671875 C96.18938298 236.83205254 90.36977817 246.79804216 83.84765625 256.51953125 C81.95335997 259.23247976 81.95335997 259.23247976 81.0625 262.3125 C80.4025 262.3125 79.7425 262.3125 79.0625 262.3125 C78.4025 263.9625 77.7425 265.6125 77.0625 267.3125 C76.4025 267.3125 75.7425 267.3125 75.0625 267.3125 C73.4217385 269.16196359 73.4217385 269.16196359 71.75 271.5 C69.09355496 275.09963227 66.26208976 278.18481113 63.0625 281.3125 C61.77539228 282.61917437 60.49042551 283.92795939 59.20703125 285.23828125 C45.18795598 299.46046144 45.18795598 299.46046144 37.65234375 304.96484375 C37.12769531 305.40957031 36.60304688 305.85429687 36.0625 306.3125 C36.0625 306.9725 36.0625 307.6325 36.0625 308.3125 C35.52625 308.56 34.99 308.8075 34.4375 309.0625 C31.4801018 310.61902537 28.76525949 312.34685673 26.0625 314.3125 C26.0625 314.9725 26.0625 315.6325 26.0625 316.3125 C25.0725 316.3125 24.0825 316.3125 23.0625 316.3125 C23.0625 316.9725 23.0625 317.6325 23.0625 318.3125 C21.0825 318.9725 19.1025 319.6325 17.0625 320.3125 C20.35103565 322.5048571 23.60808213 323.60800162 27.328125 324.80859375 C28.03974792 325.04280533 28.75137085 325.27701691 29.48455811 325.51832581 C31.75915181 326.26652776 34.03562385 327.00877546 36.3125 327.75 C38.57492958 328.4881267 40.83686613 329.22764293 43.09759521 329.97096252 C44.50236905 330.43271158 45.90811793 330.89150892 47.31500244 331.3467865 C51.67744022 332.77894801 55.84820259 334.49711503 60.0625 336.3125 C62.02123386 336.98810263 63.99017828 337.63491366 65.96875 338.25 C67.04253906 338.58773438 68.11632812 338.92546875 69.22265625 339.2734375 C70.32480469 339.61632812 71.42695313 339.95921875 72.5625 340.3125 C84.84525879 344.13380274 84.84525879 344.13380274 89.00390625 345.96875 C91.83463838 347.21239221 94.5068637 348.06532779 97.5 348.8125 C100.80801722 349.6676337 103.91747356 350.60716027 107.0625 351.9375 C115.35475581 355.13594153 123.63739138 354.64104761 132.0625 352.3125 C133.07763672 352.07080078 133.07763672 352.07080078 134.11328125 351.82421875 C143.25719972 349.13051932 149.9466355 341.23856637 154.90625 333.453125 C158.58320089 326.64579701 159.18541573 319.9784934 159.19621277 312.31193542 C159.19847833 311.64330752 159.20074388 310.97467962 159.20307809 310.28579026 C159.2093649 308.06445091 159.20859218 305.84317339 159.20776367 303.62182617 C159.21075849 302.02127504 159.21416176 300.42072464 159.21794128 298.82017517 C159.22675268 294.48534187 159.22911819 290.15052833 159.22975707 285.81568694 C159.2304692 283.10375435 159.23260661 280.39182675 159.23525429 277.6798954 C159.24449827 268.20838733 159.24859036 258.7368933 159.24780273 249.26538086 C159.24720221 240.45344661 159.25775158 231.64157362 159.2735464 222.82965487 C159.28664595 215.24979942 159.29198562 207.66996393 159.29134732 200.09009725 C159.29109305 195.56936792 159.2939054 191.04869308 159.30452538 186.52797508 C159.31424706 182.27373593 159.31425777 178.0196029 159.30700874 173.76535988 C159.30596795 172.21020985 159.30829557 170.65505307 159.3143692 169.09991455 C159.35389267 158.27279692 159.143917 148.42123614 153.9375 138.6875 C153.39867187 137.66398437 152.85984375 136.64046875 152.3046875 135.5859375 C151.68980469 134.46058594 151.68980469 134.46058594 151.0625 133.3125 C150.4025 133.3125 149.7425 133.3125 149.0625 133.3125 C149.0625 132.6525 149.0625 131.9925 149.0625 131.3125 C148.4025 131.3125 147.7425 131.3125 147.0625 131.3125 C147.0625 130.6525 147.0625 129.9925 147.0625 129.3125 C145.32858049 127.70615985 143.524409 126.1749713 141.6875 124.6875 C140.68976563 123.87023437 139.69203125 123.05296875 138.6640625 122.2109375 C136.33000115 120.11601031 136.33000115 120.11601031 134.0625 120.3125 C134.0625 119.6525 134.0625 118.9925 134.0625 118.3125 C133.4025 118.3125 132.7425 118.3125 132.0625 118.3125 C132.0625 117.6525 132.0625 116.9925 132.0625 116.3125 C130.37505101 114.83104374 130.37505101 114.83104374 128.25 113.375 C126.14382929 111.87497678 124.22546959 110.48091488 122.42578125 108.62109375 C121.13697323 107.0816704 121.13697323 107.0816704 119.0625 107.3125 C119.0625 106.6525 119.0625 105.9925 119.0625 105.3125 C116.92331378 103.30213215 116.92331378 103.30213215 114.25 101.25 C112.91001953 100.18072266 112.91001953 100.18072266 111.54296875 99.08984375 C109.11656627 97.16635108 109.11656627 97.16635108 106.0625 96.3125 C106.0625 95.6525 106.0625 94.9925 106.0625 94.3125 C103.00691577 91.28732091 103.00691577 91.28732091 99.0625 90.3125 C99.0625 89.6525 99.0625 88.9925 99.0625 88.3125 C96.42565253 85.91429695 96.42565253 85.91429695 93.0625 85.3125 C93.0625 84.6525 93.0625 83.9925 93.0625 83.3125 C92.4025 83.3125 91.7425 83.3125 91.0625 83.3125 C91.0625 82.6525 91.0625 81.9925 91.0625 81.3125 C88.00691577 78.28732091 88.00691577 78.28732091 84.0625 77.3125 C84.0625 76.6525 84.0625 75.9925 84.0625 75.3125 C81.42565253 72.91429695 81.42565253 72.91429695 78.0625 72.3125 C78.0625 71.6525 78.0625 70.9925 78.0625 70.3125 C75.00691577 67.28732091 75.00691577 67.28732091 71.0625 66.3125 C71.0625 65.6525 71.0625 64.9925 71.0625 64.3125 C69.50934614 62.94001319 67.89364316 61.63771299 66.25 60.375 C61.28434823 56.54148817 61.28434823 56.54148817 59.36328125 54.55859375 C58.12201342 53.08191198 58.12201342 53.08191198 56.0625 53.3125 C56.0625 52.6525 56.0625 51.9925 56.0625 51.3125 C53.92331378 49.30213215 53.92331378 49.30213215 51.25 47.25 C50.35667969 46.53714844 49.46335937 45.82429688 48.54296875 45.08984375 C46.11656627 43.16635108 46.11656627 43.16635108 43.0625 42.3125 C43.0625 41.6525 43.0625 40.9925 43.0625 40.3125 C40.88985345 38.26793941 40.88985345 38.26793941 38.1875 36.1875 C37.28257812 35.46304688 36.37765625 34.73859375 35.4453125 33.9921875 C33.27594189 32.12044766 33.27594189 32.12044766 31.0625 32.3125 C31.0625 31.6525 31.0625 30.9925 31.0625 30.3125 C29.11874046 28.49621224 29.11874046 28.49621224 26.6875 26.6875 C25.87539063 26.05585937 25.06328125 25.42421875 24.2265625 24.7734375 C22.22140121 23.12599192 22.22140121 23.12599192 20.0625 23.3125 C20.0625 22.6525 20.0625 21.9925 20.0625 21.3125 C6.93883327 15.85488231 -6.91149681 13.9833729 -19.9375 21.3125 Z M-75.4375 162.4375 C-78.15622624 164.92904556 -78.15622624 164.92904556 -77.9375 167.3125 C-78.5975 167.3125 -79.2575 167.3125 -79.9375 167.3125 C-81.0712692 169.32842653 -82.19411641 171.35049747 -83.3125 173.375 C-84.25222656 175.06302734 -84.25222656 175.06302734 -85.2109375 176.78515625 C-91.17744724 188.97465466 -90.88717275 204.42688141 -86.88574219 217.23901367 C-83.44069089 227.00537326 -78.67475297 235.7225279 -72.9375 244.3125 C-72.39875244 245.17536621 -72.39875244 245.17536621 -71.84912109 246.05566406 C-70.93059886 247.50882314 -69.93970646 248.91574068 -68.9375 250.3125 C-68.2775 250.3125 -67.6175 250.3125 -66.9375 250.3125 C-66.6796875 250.87453125 -66.421875 251.4365625 -66.15625 252.015625 C-64.79580223 254.57954579 -63.20961038 256.76476365 -61.4375 259.0625 C-60.8290625 259.86171875 -60.220625 260.6609375 -59.59375 261.484375 C-59.0471875 262.08765625 -58.500625 262.6909375 -57.9375 263.3125 C-57.2775 263.3125 -56.6175 263.3125 -55.9375 263.3125 C-55.67775391 263.89676758 -55.41800781 264.48103516 -55.15039062 265.08300781 C-53.852844 267.46811164 -52.44408878 269.06440637 -50.53125 270.984375 C-49.86996094 271.64824219 -49.20867187 272.31210937 -48.52734375 272.99609375 C-47.83769531 273.67800781 -47.14804688 274.35992187 -46.4375 275.0625 C-45.74785156 275.75988281 -45.05820313 276.45726562 -44.34765625 277.17578125 C-43.68636719 277.83449219 -43.02507812 278.49320312 -42.34375 279.171875 C-41.73853516 279.77483398 -41.13332031 280.37779297 -40.50976562 280.99902344 C-39.02313968 282.52620721 -39.02313968 282.52620721 -36.9375 282.3125 C-36.9375 282.9725 -36.9375 283.6325 -36.9375 284.3125 C-36.2775 284.3125 -35.6175 284.3125 -34.9375 284.3125 C-34.7209375 284.87453125 -34.504375 285.4365625 -34.28125 286.015625 C-32.48680872 289.08286765 -30.19857786 290.83910572 -27.4375 293.0625 C-25.96796875 294.26132812 -25.96796875 294.26132812 -24.46875 295.484375 C-22.18767054 297.50766352 -22.18767054 297.50766352 -19.9375 297.3125 C-19.9375 297.9725 -19.9375 298.6325 -19.9375 299.3125 C-17.25534385 301.62837236 -14.2488808 303.52192642 -11.3125 305.5 C-10.50425781 306.07169922 -9.69601563 306.64339844 -8.86328125 307.23242188 C-4.1394008 310.49458238 -4.1394008 310.49458238 1.40625 311.3046875 C3.74743394 310.43018644 5.8169108 309.5647653 7.9375 308.25 C8.96875 307.610625 10 306.97125 11.0625 306.3125 C11.0625 305.6525 11.0625 304.9925 11.0625 304.3125 C11.805 304.044375 12.5475 303.77625 13.3125 303.5 C15.95311949 302.35973249 17.91802844 301.21869694 20.0625 299.3125 C20.0625 298.6525 20.0625 297.9925 20.0625 297.3125 C20.60390625 297.0753125 21.1453125 296.838125 21.703125 296.59375 C24.69500137 294.96902243 27.17409399 292.9623123 29.8125 290.8125 C31.28976562 289.62140625 31.28976562 289.62140625 32.796875 288.40625 C33.54453125 287.7153125 34.2921875 287.024375 35.0625 286.3125 C35.0625 285.6525 35.0625 284.9925 35.0625 284.3125 C35.65160156 284.05082031 36.24070312 283.78914062 36.84765625 283.51953125 C39.18035434 282.2482725 40.66604368 280.91019469 42.5 279 C43.10457031 278.37738281 43.70914063 277.75476563 44.33203125 277.11328125 C44.90308594 276.51902344 45.47414063 275.92476563 46.0625 275.3125 C48.64796912 272.72703088 51.23134026 270.15116376 53.875 267.625 C56.29156662 265.60087851 56.29156662 265.60087851 56.0625 263.3125 C57.0525 262.9825 58.0425 262.6525 59.0625 262.3125 C61.18636941 260.06757697 61.18636941 260.06757697 63.25 257.375 C63.96542969 256.47910156 64.68085938 255.58320313 65.41796875 254.66015625 C67.25374557 252.51721204 67.25374557 252.51721204 67.0625 250.3125 C67.7225 250.3125 68.3825 250.3125 69.0625 250.3125 C70.01541609 249.00665202 70.94790884 247.68334586 71.8046875 246.3125 C72.7106077 244.87203062 73.65892717 243.45791779 74.6328125 242.0625 C86.06358657 225.24952289 90.65777432 207.50500647 89.0625 187.3125 C88.24309937 183.26864718 87.010765 179.93515249 85.0625 176.3125 C84.60746094 175.43851563 84.15242187 174.56453125 83.68359375 173.6640625 C82.52279509 171.51443535 81.32299838 169.40472067 80.0625 167.3125 C79.4025 167.3125 78.7425 167.3125 78.0625 167.3125 C77.79695312 166.71566406 77.53140625 166.11882812 77.2578125 165.50390625 C74.25412222 159.99714073 68.86632014 156.71228619 63.015625 154.84765625 C52.76073421 152.03781617 43.65342653 154.99958549 34.46484375 159.9140625 C28.55826887 163.31051767 28.55826887 163.31051767 23.0625 167.3125 C23.0625 167.9725 23.0625 168.6325 23.0625 169.3125 C21.0625 170.3125 19.0625 171.3125 17.0625 172.3125 C17.0625 172.9725 17.0625 173.6325 17.0625 174.3125 C16.4025 174.3125 15.7425 174.3125 15.0625 174.3125 C13.50523602 176.07604335 12.01489767 177.89913608 10.5625 179.75 C6.26671053 185.21039474 6.26671053 185.21039474 4.0625 186.3125 C-3.04743377 187.01183775 -3.04743377 187.01183775 -6.5625 184.25 C-7.738125 182.7959375 -7.738125 182.7959375 -8.9375 181.3125 C-9.99431873 180.03693825 -11.05697258 178.76619155 -12.125 177.5 C-12.61355469 176.89542969 -13.10210937 176.29085937 -13.60546875 175.66796875 C-14.04503906 175.22066406 -14.48460937 174.77335937 -14.9375 174.3125 C-15.5975 174.3125 -16.2575 174.3125 -16.9375 174.3125 C-16.9375 173.6525 -16.9375 172.9925 -16.9375 172.3125 C-19.57434747 169.91429695 -19.57434747 169.91429695 -22.9375 169.3125 C-22.9375 168.6525 -22.9375 167.9925 -22.9375 167.3125 C-38.16343383 154.8848459 -59.50820826 147.14239552 -75.4375 162.4375 Z " fill="#D20F2C" transform="translate(249.9375,64.6875)"/>
<path d="M0 0 C0.33 0 0.66 0 1 0 C1.38231972 4.92687484 0.59658823 7.34337133 -2.3125 11.3125 C-2.92738281 12.17488281 -3.54226563 13.03726562 -4.17578125 13.92578125 C-6 16 -6 16 -9 17 C-9 18.32 -9 19.64 -9 21 C-8.01 21.33 -7.02 21.66 -6 22 C-6 23.32 -6 24.64 -6 26 C-5.401875 25.484375 -4.80375 24.96875 -4.1875 24.4375 C-3.465625 23.963125 -2.74375 23.48875 -2 23 C-1.01 23.33 -0.02 23.66 1 24 C1 25.65 1 27.3 1 29 C-0.98 29.99 -0.98 29.99 -3 31 C-3 31.66 -3 32.32 -3 33 C-15.87638779 40.3499207 -15.87638779 40.3499207 -22 40 C-22 39.34 -22 38.68 -22 38 C-21.34 38 -20.68 38 -20 38 C-20.66 36.35 -21.32 34.7 -22 33 C-20.02 31.68 -18.04 30.36 -16 29 C-16.33 27.35 -16.66 25.7 -17 24 C-17.99 23.67 -18.98 23.34 -20 23 C-19.34 22.484375 -18.68 21.96875 -18 21.4375 C-17.01 20.633125 -16.02 19.82875 -15 19 C-14.37222656 18.50242187 -13.74445313 18.00484375 -13.09765625 17.4921875 C-7.29204817 12.70061077 -2.4147376 7.24421279 0 0 Z " fill="#D11430" transform="translate(406,393)"/>
<path d="M0 0 C1.32 0.66 2.64 1.32 4 2 C3.835 2.5775 3.67 3.155 3.5 3.75 C2.85537969 6.26664369 2.85537969 6.26664369 3 10 C3 13.12715028 2.64511131 15.93572127 2 19 C-0.0625 20.9375 -0.0625 20.9375 -2 22 C-2 21.01 -2 20.02 -2 19 C-2.556875 19.226875 -3.11375 19.45375 -3.6875 19.6875 C-6 20 -6 20 -8.625 18.875 C-11.30588515 16.75851173 -12.03928241 15.23150461 -13 12 C-12.505 11.54625 -12.01 11.0925 -11.5 10.625 C-9.77390663 9.12364481 -9.77390663 9.12364481 -10 7 C-8.35 6.67 -6.7 6.34 -5 6 C-5 5.34 -5 4.68 -5 4 C-3.02 4 -1.04 4 1 4 C0.67 2.68 0.34 1.36 0 0 Z " fill="#D20827" transform="translate(139,144)"/>
<path d="M0 0 C1.4540625 0.0309375 1.4540625 0.0309375 2.9375 0.0625 C3.205625 0.825625 3.47375 1.58875 3.75 2.375 C4.9010558 4.98002101 5.74203756 6.30613005 7.9375 8.0625 C8.9275 8.3925 9.9175 8.7225 10.9375 9.0625 C10.6075 10.0525 10.2775 11.0425 9.9375 12.0625 C8.9475 12.3925 7.9575 12.7225 6.9375 13.0625 C6.2775 12.7325 5.6175 12.4025 4.9375 12.0625 C4.2775 13.3825 3.6175 14.7025 2.9375 16.0625 C2.2775 16.0625 1.6175 16.0625 0.9375 16.0625 C0.9375 16.7225 0.9375 17.3825 0.9375 18.0625 C-0.7125 17.7325 -2.3625 17.4025 -4.0625 17.0625 C-4.248125 15.886875 -4.248125 15.886875 -4.4375 14.6875 C-4.85367993 11.92192178 -4.85367993 11.92192178 -7.0625 10.0625 C-6.4025 8.0825 -5.7425 6.1025 -5.0625 4.0625 C-4.0725 4.0625 -3.0825 4.0625 -2.0625 4.0625 C-2.0625 3.4025 -2.0625 2.7425 -2.0625 2.0625 C-2.7225 1.7325 -3.3825 1.4025 -4.0625 1.0625 C-3.0625 0.0625 -3.0625 0.0625 0 0 Z " fill="#D10625" transform="translate(317.0625,105.9375)"/>
<path d="M0 0 C-0.83321116 11.94269327 -7.20137074 22.7897335 -13 33 C-14.25541557 29.23375329 -13.37061958 27.62811066 -12 24 C-11.34 24 -10.68 24 -10 24 C-9.67 20.7 -9.34 17.4 -9 14 C-8.34 14 -7.68 14 -7 14 C-5.35704258 10.42835343 -4.08584721 7.51508325 -3.4375 3.625 C-3.293125 2.75875 -3.14875 1.8925 -3 1 C-1 0 -1 0 0 0 Z " fill="#C92F46" transform="translate(353,281)"/>
<path d="M0 0 C0.33 0 0.66 0 1 0 C2.11950469 10.51534763 2.25172104 20.49448416 1 31 C0.34 31 -0.32 31 -1 31 C-1.02465622 26.74585377 -1.04283899 22.49174502 -1.05493164 18.23754883 C-1.05997101 16.78929927 -1.06680253 15.34105483 -1.07543945 13.89282227 C-1.08752247 11.81525412 -1.09323211 9.73775303 -1.09765625 7.66015625 C-1.10289307 6.40855713 -1.10812988 5.15695801 -1.11352539 3.86743164 C-1 1 -1 1 0 0 Z " fill="#C21E33" transform="translate(354,247)"/>
<path d="M0 0 C2.31 0.33 4.62 0.66 7 1 C5.6118265 4.12857014 3.98898122 6.28189174 1.5625 8.6875 C0.96566406 9.28949219 0.36882812 9.89148438 -0.24609375 10.51171875 C-2 12 -2 12 -5 13 C-5.1875 10.625 -5.1875 10.625 -5 8 C-4.01 7.34 -3.02 6.68 -2 6 C-1.34 6.33 -0.68 6.66 0 7 C0 4.69 0 2.38 0 0 Z " fill="#CD2D43" transform="translate(298,352)"/>
<path d="M0 0 C1.65 0.66 3.3 1.32 5 2 C1.3664162 5.26164215 -2.6008791 6.30405318 -7.1875 7.625 C-11.96569225 8.6706534 -11.96569225 8.6706534 -16 11 C-17.66617115 11.04063832 -19.33388095 11.042721 -21 11 C-20.360625 10.896875 -19.72125 10.79375 -19.0625 10.6875 C-18.0415625 10.3471875 -18.0415625 10.3471875 -17 10 C-16.67 9.01 -16.34 8.02 -16 7 C-14.35 7 -12.7 7 -11 7 C-11 6.34 -11 5.68 -11 5 C-9.02 5 -7.04 5 -5 5 C-5 4.34 -5 3.68 -5 3 C-4.360625 2.87625 -3.72125 2.7525 -3.0625 2.625 C-2.381875 2.41875 -1.70125 2.2125 -1 2 C-0.67 1.34 -0.34 0.68 0 0 Z " fill="#CA2E42" transform="translate(229,400)"/>
<path d="M0 0 C1.32 0 2.64 0 4 0 C4 1.32 4 2.64 4 4 C5.11375 3.938125 6.2275 3.87625 7.375 3.8125 C9.169375 3.9053125 9.169375 3.9053125 11 4 C11.99 5.485 11.99 5.485 13 7 C12.34 7 11.68 7 11 7 C11.66 8.65 12.32 10.3 13 12 C12.01 12.495 12.01 12.495 11 13 C10.29875 12.278125 9.5975 11.55625 8.875 10.8125 C6.91684726 8.83190425 4.88108536 7.08922704 2.6875 5.375 C1.800625 4.59125 0.91375 3.8075 0 3 C0 2.01 0 1.02 0 0 Z " fill="#CE263A" transform="translate(203,360)"/>
<path d="M0 0 C0.33 0 0.66 0 1 0 C1.02187378 0.9132605 1.02187378 0.9132605 1.04418945 1.8449707 C1.25438805 17.69976362 1.25438805 17.69976362 5 33 C3.02 33.495 3.02 33.495 1 34 C-0.15792475 30.3298994 -0.11388663 26.87724396 -0.09765625 23.046875 C-0.0962413 22.38665344 -0.09482635 21.72643188 -0.09336853 21.04620361 C-0.08779245 18.94742206 -0.07524447 16.84874905 -0.0625 14.75 C-0.0574819 13.32291821 -0.05291954 11.89583475 -0.04882812 10.46875 C-0.03783088 6.97913168 -0.0205828 3.48957644 0 0 Z " fill="#C73748" transform="translate(160,252)"/>
<path d="M0 0 C2.64 0.33 5.28 0.66 8 1 C8.33 2.98 8.66 4.96 9 7 C9.66 7 10.32 7 11 7 C11 7.66 11 8.32 11 9 C12.65 9.33 14.3 9.66 16 10 C16.33 11.32 16.66 12.64 17 14 C17.66 14 18.32 14 19 14 C18.67 14.66 18.34 15.32 18 16 C16.66102417 15.04956626 15.32894573 14.08940853 14 13.125 C13.2575 12.59132812 12.515 12.05765625 11.75 11.5078125 C11.1725 11.01023438 10.595 10.51265625 10 10 C10 9.34 10 8.68 10 8 C9.401875 7.71125 8.80375 7.4225 8.1875 7.125 C6 6 6 6 3 4 C3 3.34 3 2.68 3 2 C2.01 1.67 1.02 1.34 0 1 C0 0.67 0 0.34 0 0 Z " fill="#CF4D58" transform="translate(346,151)"/>
<path d="M0 0 C0.66 0.33 1.32 0.66 2 1 C2 1.99 2 2.98 2 4 C0.33720673 5.0064275 -1.32983484 6.00585407 -3 7 C-4.32793606 9.06700655 -4.32793606 9.06700655 -5 11 C-5.99 10.67 -6.98 10.34 -8 10 C-8 10.99 -8 11.98 -8 13 C-8.66 13 -9.32 13 -10 13 C-10 13.66 -10 14.32 -10 15 C-10.66 15 -11.32 15 -12 15 C-10.63312778 11.01328937 -8.84804907 8.11505367 -6 5 C-5.34 5 -4.68 5 -4 5 C-4 4.34 -4 3.68 -4 3 C-2 1.375 -2 1.375 0 0 Z " fill="#D14152" transform="translate(95,179)"/>
<path d="M0 0 C-1.98 2.31 -3.96 4.62 -6 7 C-7.98 6.34 -9.96 5.68 -12 5 C-11.4375 3.125 -11.4375 3.125 -10 1 C-3.94067797 -1.31355932 -3.94067797 -1.31355932 0 0 Z " fill="#CD0724" transform="translate(212,87)"/>
<path d="M0 0 C1.24546405 2.49092811 0.7767578 3.41080733 0 6 C0.33 5.67 0.66 5.34 1 5 C1.66 5 2.32 5 3 5 C3 5.99 3 6.98 3 8 C-0.4352048 10.29013653 -1.985331 10.17842973 -6 10 C-5.8125 6.6875 -5.8125 6.6875 -5 3 C-2.4375 1.0625 -2.4375 1.0625 0 0 Z " fill="#D60526" transform="translate(286,212)"/>
<path d="M0 0 C0.33 0 0.66 0 1 0 C1.36331371 4.86555419 0.63382055 7.34821377 -2.1875 11.3125 C-2.77917969 12.17488281 -3.37085938 13.03726562 -3.98046875 13.92578125 C-6.3182483 16.32686625 -7.71478096 16.69928047 -11 17 C-10.113125 16.05125 -9.22625 15.1025 -8.3125 14.125 C-4.62343678 9.85760383 -2.32216105 5.10669929 0 0 Z " fill="#D04252" transform="translate(406,393)"/>
<path d="M0 0 C-0.66 0.66 -1.32 1.32 -2 2 C-2.33 3.32 -2.66 4.64 -3 6 C-5.97 5.67 -8.94 5.34 -12 5 C-10.7410501 2.4821002 -9.60942883 2.07291536 -7.125 0.8125 C-6.42632812 0.44769531 -5.72765625 0.08289063 -5.0078125 -0.29296875 C-3 -1 -3 -1 0 0 Z M-7 6 C-6.67 6.66 -6.34 7.32 -6 8 C-6.66 7.67 -7.32 7.34 -8 7 C-7.67 6.67 -7.34 6.34 -7 6 Z " fill="#D53448" transform="translate(288,206)"/>
<path d="M0 0 C0.66 0.33 1.32 0.66 2 1 C2 2.32 2 3.64 2 5 C4.64 5.33 7.28 5.66 10 6 C8.390625 7.1171875 8.390625 7.1171875 6 8 C2.984375 7.3203125 2.984375 7.3203125 -0.25 6.125 C-1.32765625 5.73570312 -2.4053125 5.34640625 -3.515625 4.9453125 C-4.33546875 4.63335937 -5.1553125 4.32140625 -6 4 C-5.34 3.34 -4.68 2.68 -4 2 C-2.68 2 -1.36 2 0 2 C0 1.34 0 0.68 0 0 Z " fill="#CF3345" transform="translate(306,411)"/>
<path d="M0 0 C1.875 0.125 1.875 0.125 4 1 C5.25 4.0625 5.25 4.0625 6 7 C7.32 7 8.64 7 10 7 C10 8.65 10 10.3 10 12 C8.8944811 11.06409496 7.79064547 10.12620142 6.6875 9.1875 C6.07261719 8.66542969 5.45773438 8.14335937 4.82421875 7.60546875 C4.22222656 7.07566406 3.62023437 6.54585938 3 6 C2.42894531 5.50113281 1.85789063 5.00226563 1.26953125 4.48828125 C0 3 0 3 0 0 Z " fill="#CB2F3F" transform="translate(191,348)"/>
<path d="M0 0 C-0.3125 1.9375 -0.3125 1.9375 -1 4 C-1.99 4.33 -2.98 4.66 -4 5 C-5.20882096 7.00016466 -5.20882096 7.00016466 -6 9 C-7.0625 7.1875 -7.0625 7.1875 -8 5 C-6.44843568 0.34530705 -4.78780941 0 0 0 Z " fill="#CC253C" transform="translate(320,337)"/>
<path d="M0 0 C0.99 0 1.98 0 3 0 C3 0.66 3 1.32 3 2 C3.66 2 4.32 2 5 2 C5.1875 4.375 5.1875 4.375 5 7 C4.01 7.66 3.02 8.32 2 9 C1.67 8.01 1.34 7.02 1 6 C0.34 5.67 -0.32 5.34 -1 5 C-0.67 3.35 -0.34 1.7 0 0 Z " fill="#CF0523" transform="translate(171,320)"/>
<path d="M0 0 C0.66 0.33 1.32 0.66 2 1 C1.625 3.4375 1.625 3.4375 1 6 C0.01 6.495 0.01 6.495 -1 7 C-1.66 6.67 -2.32 6.34 -3 6 C-3.33 6.99 -3.66 7.98 -4 9 C-5.98 9.33 -7.96 9.66 -10 10 C-8.625 8 -8.625 8 -7 6 C-6.34 6 -5.68 6 -5 6 C-5 5.34 -5 4.68 -5 4 C-3.37373596 2.61767557 -1.7074998 1.28062485 0 0 Z " fill="#D53C4E" transform="translate(200,89)"/>
<path d="M0 0 C0.79921875 0.11085938 1.5984375 0.22171875 2.421875 0.3359375 C3.02515625 0.43132812 3.6284375 0.52671875 4.25 0.625 C3.92 1.285 3.59 1.945 3.25 2.625 C0.98167936 3.25734514 -1.31701261 3.78273875 -3.625 4.25 C-4.88054687 4.51039062 -6.13609375 4.77078125 -7.4296875 5.0390625 C-10.75 5.625 -10.75 5.625 -13.75 5.625 C-13.42 4.965 -13.09 4.305 -12.75 3.625 C-11.43 3.625 -10.11 3.625 -8.75 3.625 C-8.75 2.965 -8.75 2.305 -8.75 1.625 C-5.5750906 -0.2828584 -3.64414789 -0.5359041 0 0 Z " fill="#C82645" transform="translate(244.75,79.375)"/>
<path d="M0 0 C1.0625 1.875 1.0625 1.875 2 4 C1.67 4.66 1.34 5.32 1 6 C-0.32 6 -1.64 6 -3 6 C-3.33 7.32 -3.66 8.64 -4 10 C-5.32 10.33 -6.64 10.66 -8 11 C-7.01 9.02 -6.02 7.04 -5 5 C-4.34 5 -3.68 5 -3 5 C-2.690625 4.360625 -2.38125 3.72125 -2.0625 3.0625 C-1 1 -1 1 0 0 Z " fill="#CF3043" transform="translate(163,215)"/>
<path d="M0 0 C2 1 4 2 6 3 C6 3.66 6 4.32 6 5 C7.32 5.66 8.64 6.32 10 7 C9.34 7.66 8.68 8.32 8 9 C7.34 8.34 6.68 7.68 6 7 C5.175 7.020625 4.35 7.04125 3.5 7.0625 C2.2625 7.0315625 2.2625 7.0315625 1 7 C0.34 6.01 -0.32 5.02 -1 4 C-0.34 4 0.32 4 1 4 C0.67 2.68 0.34 1.36 0 0 Z " fill="#D02D41" transform="translate(328,209)"/>
<path d="M0 0 C0 0.66 0 1.32 0 2 C-1.85625 2.680625 -1.85625 2.680625 -3.75 3.375 C-6.07659714 4.23108944 -8.10340062 5.06031703 -10.25 6.3125 C-10.8275 6.539375 -11.405 6.76625 -12 7 C-14.109375 6.04296875 -14.109375 6.04296875 -16 5 C-14.3962669 4.35309078 -12.79199694 3.70751236 -11.1875 3.0625 C-9.84751953 2.52302734 -9.84751953 2.52302734 -8.48046875 1.97265625 C-5.46847959 0.79157704 -3.26236464 0 0 0 Z " fill="#D03B4A" transform="translate(180,404)"/>
<path d="M0 0 C0.33 0 0.66 0 1 0 C1.12910853 6.74233419 0.797837 13.30386804 0 20 C-0.66 20 -1.32 20 -2 20 C-2.02687279 18.18757948 -2.04633715 16.37504767 -2.0625 14.5625 C-2.07410156 13.55316406 -2.08570313 12.54382813 -2.09765625 11.50390625 C-2 9 -2 9 -1 8 C-0.76924918 6.65252916 -0.58846937 5.29622435 -0.4375 3.9375 C-0.293125 2.638125 -0.14875 1.33875 0 0 Z " fill="#CB374D" transform="translate(355,258)"/>
<path d="M0 0 C0.66 0.33 1.32 0.66 2 1 C1.67 1.99 1.34 2.98 1 4 C1.639375 4.12375 2.27875 4.2475 2.9375 4.375 C3.618125 4.58125 4.29875 4.7875 5 5 C5.33 5.66 5.66 6.32 6 7 C4.03964825 6.55037804 2.08175691 6.09001752 0.125 5.625 C-0.96554687 5.36976563 -2.05609375 5.11453125 -3.1796875 4.8515625 C-6 4 -6 4 -8 2 C-5.36 2 -2.72 2 0 2 C0 1.34 0 0.68 0 0 Z " fill="#CC3748" transform="translate(276,401)"/>
<path d="M0 0 C5.75 0.75 5.75 0.75 8 3 C8.40047444 5.32275177 8.7397104 7.65739357 9 10 C5.06451569 6.93906776 2.31883213 4.50884026 0 0 Z " fill="#D23D4E" transform="translate(176,334)"/>
<path d="M0 0 C1.30660357 4.29727397 0.6596762 7.60215865 0 12 C-0.99 12.33 -1.98 12.66 -3 13 C-3 15.31 -3 17.62 -3 20 C-3.33 20 -3.66 20 -4 20 C-4.5644718 12.66186666 -2.55327104 6.83911885 0 0 Z " fill="#CB4350" transform="translate(149,235)"/>
<path d="M0 0 C-0.33 0.66 -0.66 1.32 -1 2 C-2.134375 1.38125 -3.26875 0.7625 -4.4375 0.125 C-8.82836911 -2.09007172 -13.17829396 -3.1517369 -18 -4 C-18 -4.33 -18 -4.66 -18 -5 C-10.43024407 -6.94650867 -6.16280306 -4.14421744 0 0 Z " fill="#D3535F" transform="translate(323,223)"/>
<path d="M0 0 C2.43816585 -0.0809723 4.87364384 -0.14046972 7.3125 -0.1875 C8.34793945 -0.22520508 8.34793945 -0.22520508 9.40429688 -0.26367188 C14.55674183 -0.33834499 14.55674183 -0.33834499 16.98046875 1.51171875 C17.31691406 2.00285156 17.65335938 2.49398437 18 3 C17.38253906 2.91621094 16.76507813 2.83242187 16.12890625 2.74609375 C10.17546317 2.03023073 4.93346811 2.13869011 -1 3 C-0.67 2.01 -0.34 1.02 0 0 Z " fill="#D75562" transform="translate(187,217)"/>
<path d="M0 0 C0.66 0.99 1.32 1.98 2 3 C1.01 4.485 1.01 4.485 0 6 C-1.32 6 -2.64 6 -4 6 C-4 6.66 -4 7.32 -4 8 C-5.65 8.33 -7.3 8.66 -9 9 C-9 8.34 -9 7.68 -9 7 C-7.03125 5.2734375 -7.03125 5.2734375 -4.5 3.375 C-3.6646875 2.74335937 -2.829375 2.11171875 -1.96875 1.4609375 C-1.3190625 0.97882813 -0.669375 0.49671875 0 0 Z " fill="#D13547" transform="translate(184,103)"/>
<path d="M0 0 C2.76276177 0.52268466 5.3260876 1.10869587 8 2 C7.67 3.65 7.34 5.3 7 7 C6.01 7.33 5.02 7.66 4 8 C4 7.34 4 6.68 4 6 C3.34 5.67 2.68 5.34 2 5 C1.27840576 3.35636866 0.60648579 1.68949614 0 0 Z " fill="#CD0623" transform="translate(274,73)"/>
<path d="M0 0 C0.66 0.33 1.32 0.66 2 1 C2.99 1 3.98 1 5 1 C6.6875 3 6.6875 3 8 5 C4.69564916 6.12377697 2.9493138 5.89554742 -0.25 4.5625 C-0.95640625 4.27503906 -1.6628125 3.98757813 -2.390625 3.69140625 C-2.92171875 3.46324219 -3.4528125 3.23507812 -4 3 C-2.68 2.67 -1.36 2.34 0 2 C0 1.34 0 0.68 0 0 Z " fill="#CE3547" transform="translate(342,425)"/>
<path d="M0 0 C1.32 0.33 2.64 0.66 4 1 C3.67 1.99 3.34 2.98 3 4 C4.65 4.33 6.3 4.66 8 5 C5 7 5 7 2 7 C2 6.34 2 5.68 2 5 C-0.97 4.505 -0.97 4.505 -4 4 C-3.67 3.34 -3.34 2.68 -3 2 C-2.01 2 -1.02 2 0 2 C0 1.34 0 0.68 0 0 Z " fill="#DA243E" transform="translate(149,424)"/>
<path d="M0 0 C-0.66 0 -1.32 0 -2 0 C-2 0.66 -2 1.32 -2 2 C-5.70416126 4.37590142 -8.92984573 4.20500286 -13.25 4.125 C-14.51328125 4.10695313 -15.7765625 4.08890625 -17.078125 4.0703125 C-18.04234375 4.04710937 -19.0065625 4.02390625 -20 4 C-20 3.67 -20 3.34 -20 3 C-18.78763672 2.81824219 -18.78763672 2.81824219 -17.55078125 2.6328125 C-16.48214844 2.46523438 -15.41351563 2.29765625 -14.3125 2.125 C-13.25675781 1.96257812 -12.20101562 1.80015625 -11.11328125 1.6328125 C-8.0091648 1.1069807 -8.0091648 1.1069807 -5.29296875 -0.1328125 C-3 -1 -3 -1 0 0 Z " fill="#D34059" transform="translate(150,415)"/>
<path d="M0 0 C1.98 0 3.96 0 6 0 C6 0.66 6 1.32 6 2 C7.32 2 8.64 2 10 2 C10 2.66 10 3.32 10 4 C10.99 4 11.98 4 13 4 C13 4.66 13 5.32 13 6 C10.20288194 5.34000585 7.51477469 4.54099721 4.8125 3.5625 C4.11769531 3.31628906 3.42289062 3.07007813 2.70703125 2.81640625 C1 2 1 2 0 0 Z " fill="#CE4453" transform="translate(101,427)"/>
<path d="M0 0 C2.43359057 0.58406174 4.7968056 1.24997823 7.1875 2 C11.45984828 3.12061594 15.61050347 3.62176674 20 4 C20 4.33 20 4.66 20 5 C10.58997722 6.33257403 10.58997722 6.33257403 6 5 C6 4.34 6 3.68 6 3 C5.38125 2.87625 4.7625 2.7525 4.125 2.625 C2 2 2 2 0 0 Z " fill="#D74D68" transform="translate(350,414)"/>
<path d="M0 0 C-0.75 2.4375 -0.75 2.4375 -2 5 C-3.8125 5.75 -3.8125 5.75 -6 6 C-6.9075 6.185625 -7.815 6.37125 -8.75 6.5625 C-9.4925 6.706875 -10.235 6.85125 -11 7 C-10.67 6.34 -10.34 5.68 -10 5 C-9.34 5 -8.68 5 -8 5 C-8 4.34 -8 3.68 -8 3 C-5.04518508 0.25624329 -4.22528092 0 0 0 Z " fill="#CE2E41" transform="translate(278,359)"/>
<path d="M0 0 C0.99 0.33 1.98 0.66 3 1 C1.92598892 3.91517292 1.22189824 5.77810176 -1 8 C-2.32 7.01 -3.64 6.02 -5 5 C-4.67 4.34 -4.34 3.68 -4 3 C-3.01 3 -2.02 3 -1 3 C-0.67 2.01 -0.34 1.02 0 0 Z " fill="#CD0523" transform="translate(309,328)"/>
<path d="M0 0 C1.65 0 3.3 0 5 0 C5.33 0.66 5.66 1.32 6 2 C5.67 2.66 5.34 3.32 5 4 C5.66 4.33 6.32 4.66 7 5 C6.34 5 5.68 5 5 5 C4.67 5.66 4.34 6.32 4 7 C2.35 5.35 0.7 3.7 -1 2 C-0.67 1.34 -0.34 0.68 0 0 Z " fill="#D21F38" transform="translate(388,184)"/>
<path d="M0 0 C2.97 0.495 2.97 0.495 6 1 C6 1.99 6 2.98 6 4 C3 6.1875 3 6.1875 0 8 C0 5.36 0 2.72 0 0 Z " fill="#D01F35" transform="translate(188,114)"/>
<path d="M0 0 C5.42039575 -0.40652968 9.07015675 0.96006486 14 3 C14 3.33 14 3.66 14 4 C8.32723489 4.29341888 5.00932754 4.00559652 0 1 C0 0.67 0 0.34 0 0 Z " fill="#CB2C3E" transform="translate(279,391)"/>
<path d="M0 0 C3.04492309 1.01497436 4.0298639 1.5821057 6 4 C6.75 6.0625 6.75 6.0625 7 8 C6.67 8.66 6.34 9.32 6 10 C5.34 10 4.68 10 4 10 C3.54625 9.05125 3.0925 8.1025 2.625 7.125 C1.19761746 3.99686321 1.19761746 3.99686321 -1 2 C-0.67 1.34 -0.34 0.68 0 0 Z " fill="#D50425" transform="translate(193,345)"/>
<path d="M0 0 C0 0.66 0 1.32 0 2 C-3.96 3.65 -7.92 5.3 -12 7 C-12.33 6.01 -12.66 5.02 -13 4 C-11.2097939 3.32942113 -9.41778511 2.6636531 -7.625 2 C-6.62726563 1.62875 -5.62953125 1.2575 -4.6015625 0.875 C-2 0 -2 0 0 0 Z " fill="#CD3947" transform="translate(220,390)"/>
<path d="M0 0 C0.99 1.32 1.98 2.64 3 4 C2.01 5.32 1.02 6.64 0 8 C-1.32 6.68 -2.64 5.36 -4 4 C-3.67 3.34 -3.34 2.68 -3 2 C-2.01 2 -1.02 2 0 2 C0 1.34 0 0.68 0 0 Z " fill="#D61F38" transform="translate(221,370)"/>
<path d="M0 0 C0.66 0 1.32 0 2 0 C0.58707905 4.8274799 -1.42974154 8.7162359 -4 13 C-5.25541557 9.23375329 -4.37061958 7.62811066 -3 4 C-2.34 4 -1.68 4 -1 4 C-0.67 2.68 -0.34 1.36 0 0 Z " fill="#CD3B4D" transform="translate(344,301)"/>
<path d="M0 0 C0.66 0 1.32 0 2 0 C0.72648692 3.82053924 -0.62637525 4.23021375 -4.0625 6.1875 C-4.98160156 6.71730469 -5.90070313 7.24710938 -6.84765625 7.79296875 C-7.55792969 8.19128906 -8.26820313 8.58960938 -9 9 C-9.33 8.01 -9.66 7.02 -10 6 C-8.68 6 -7.36 6 -6 6 C-6 5.01 -6 4.02 -6 3 C-4.02 2.67 -2.04 2.34 0 2 C0 1.34 0 0.68 0 0 Z " fill="#CD4351" transform="translate(283,223)"/>
<path d="M0 0 C1.79379098 0.44994757 3.58498928 0.91024143 5.375 1.375 C6.37273437 1.63023437 7.37046875 1.88546875 8.3984375 2.1484375 C11 3 11 3 13 5 C11.39504433 4.88557539 9.79101881 4.75805306 8.1875 4.625 C7.29417969 4.55539062 6.40085937 4.48578125 5.48046875 4.4140625 C3 4 3 4 0 2 C0 1.34 0 0.68 0 0 Z " fill="#D24552" transform="translate(318,403)"/>
<path d="M0 0 C1.5067748 2.79738782 2.48224115 5.40322432 3.1875 8.5 C3.36667969 9.2528125 3.54585938 10.005625 3.73046875 10.78125 C4.01801942 13.14833379 3.72248395 14.74544015 3 17 C2.67 17 2.34 17 2 17 C0.7017874 11.23918159 -0.25706972 5.91260345 0 0 Z " fill="#CB3E4C" transform="translate(421,201)"/>
<path d="M0 0 C0.66 0 1.32 0 2 0 C3.6875 2.3125 3.6875 2.3125 5 5 C4.67 5.99 4.34 6.98 4 8 C3.34 8 2.68 8 2 8 C2 7.01 2 6.02 2 5 C0.68 4.34 -0.64 3.68 -2 3 C-1.34 2.01 -0.68 1.02 0 0 Z " fill="#D0253E" transform="translate(215,89)"/>
<path d="M0 0 C0.625 1.875 0.625 1.875 1 4 C0.34 4.66 -0.32 5.32 -1 6 C-1.99 6 -2.98 6 -4 6 C-4.33 6.99 -4.66 7.98 -5 9 C-5.99 8.67 -6.98 8.34 -8 8 C-6.625 6.5 -6.625 6.5 -5 5 C-4.34 5 -3.68 5 -3 5 C-2.690625 4.360625 -2.38125 3.72125 -2.0625 3.0625 C-1 1 -1 1 0 0 Z " fill="#D14958" transform="translate(301,334)"/>
<path d="M0 0 C0.66 0 1.32 0 2 0 C2.33 0.99 2.66 1.98 3 3 C0.06171403 5.50298434 -2.17902761 6.46930939 -6 7 C-4.71937515 5.2925002 -3.38232443 3.62626404 -2 2 C-1.34 2 -0.68 2 0 2 C0 1.34 0 0.68 0 0 Z " fill="#D23C4E" transform="translate(127,151)"/>
<path d="M0 0 C1.32 0 2.64 0 4 0 C2.49776416 4.20626034 -0.28550034 5.73900021 -4 8 C-4 7.01 -4 6.02 -4 5 C-3.01 5 -2.02 5 -1 5 C-0.67 3.35 -0.34 1.7 0 0 Z " fill="#CA3040" transform="translate(201,106)"/>
<path d="M0 0 C1.32 0.33 2.64 0.66 4 1 C4 1.66 4 2.32 4 3 C4.763125 3.0825 5.52625 3.165 6.3125 3.25 C9.52373261 4.14615794 10.29374499 5.21611025 12 8 C11.01 8.495 11.01 8.495 10 9 C8.82780457 8.21654285 7.66236332 7.42297164 6.5 6.625 C5.8503125 6.18414062 5.200625 5.74328125 4.53125 5.2890625 C4.0259375 4.86367187 3.520625 4.43828125 3 4 C3 3.34 3 2.68 3 2 C2.01 1.67 1.02 1.34 0 1 C0 0.67 0 0.34 0 0 Z " fill="#D0545E" transform="translate(278,93)"/>
<path d="M0 0 C0.99 0.33 1.98 0.66 3 1 C2.67 1.66 2.34 2.32 2 3 C2.66 3.33 3.32 3.66 4 4 C3.67 4.66 3.34 5.32 3 6 C0.69 5.67 -1.62 5.34 -4 5 C-3.67 4.34 -3.34 3.68 -3 3 C-2.34 3 -1.68 3 -1 3 C-0.67 2.01 -0.34 1.02 0 0 Z " fill="#D0263D" transform="translate(297,408)"/>
<path d="M0 0 C0.75 1.5625 0.75 1.5625 1 4 C-0.13084437 6.50286409 -1.52139516 8.67007722 -3 11 C-3.33 11 -3.66 11 -4 11 C-4 9.02 -4 7.04 -4 5 C-3.34 5 -2.68 5 -2 5 C-1.7834375 4.0409375 -1.7834375 4.0409375 -1.5625 3.0625 C-1 1 -1 1 0 0 Z " fill="#D03B4B" transform="translate(421,398)"/>
<path d="M0 0 C0.33 0.99 0.66 1.98 1 3 C-1.8125 5.0625 -1.8125 5.0625 -5 7 C-5.99 6.67 -6.98 6.34 -8 6 C-7.01 5.67 -6.02 5.34 -5 5 C-5 4.34 -5 3.68 -5 3 C-2.5 1.375 -2.5 1.375 0 0 Z " fill="#D24E5D" transform="translate(271,213)"/>
<path d="M0 0 C2.03833424 1.2739589 4.03852126 2.61061923 6 4 C6 4.66 6 5.32 6 6 C6.99 6.33 7.98 6.66 9 7 C8.34 7.66 7.68 8.32 7 9 C3.46352496 7.32482761 2.2088437 6.50719183 0.6875 2.8125 C0.460625 1.884375 0.23375 0.95625 0 0 Z " fill="#CE4957" transform="translate(299,89)"/>
<path d="M0 0 C-0.33 0.66 -0.66 1.32 -1 2 C-5.29942266 2.90949326 -8.74936599 3.15926382 -13 2 C-13 1.67 -13 1.34 -13 1 C-11.39796533 0.63631108 -9.79325797 0.28438048 -8.1875 -0.0625 C-7.29417969 -0.25972656 -6.40085937 -0.45695312 -5.48046875 -0.66015625 C-3 -1 -3 -1 0 0 Z " fill="#D84958" transform="translate(385,417)"/>
<path d="M0 0 C0.99 0.33 1.98 0.66 3 1 C2.01 2.485 2.01 2.485 1 4 C-0.9453125 4.29296875 -0.9453125 4.29296875 -3.125 4.1875 C-4.40375 4.125625 -5.6825 4.06375 -7 4 C-7 3.01 -7 2.02 -7 1 C-4.69 1 -2.38 1 0 1 C0 0.67 0 0.34 0 0 Z " fill="#C80824" transform="translate(252,393)"/>
<path d="M0 0 C1.48280196 0.78483659 2.9611498 1.57809334 4.4375 2.375 C5.67306641 3.03628906 5.67306641 3.03628906 6.93359375 3.7109375 C9 5 9 5 10 7 C7.125 6.75 7.125 6.75 4 6 C2.625 3.9375 2.625 3.9375 2 2 C1.34 2 0.68 2 0 2 C0 1.34 0 0.68 0 0 Z " fill="#D24D5A" transform="translate(233,366)"/>
<path d="M0 0 C2.31 0.33 4.62 0.66 7 1 C5.25 4.875 5.25 4.875 3 6 C3 5.34 3 4.68 3 4 C2.34 3.67 1.68 3.34 1 3 C0.67 2.01 0.34 1.02 0 0 Z " fill="#CF2139" transform="translate(298,352)"/>
<path d="M0 0 C0.66 0.33 1.32 0.66 2 1 C2 2.65 2 4.3 2 6 C0.68 6.33 -0.64 6.66 -2 7 C-2 8.65 -2 10.3 -2 12 C-2.99 12.495 -2.99 12.495 -4 13 C-3.71517632 11.58194169 -3.42181856 10.16559621 -3.125 8.75 C-2.96257812 7.96109375 -2.80015625 7.1721875 -2.6328125 6.359375 C-2.00849925 4.03168856 -1.15161458 2.10968048 0 0 Z " fill="#D44255" transform="translate(340,270)"/>
<path d="M0 0 C2.97 0.495 2.97 0.495 6 1 C6.12375 1.969375 6.2475 2.93875 6.375 3.9375 C6.58125 4.948125 6.7875 5.95875 7 7 C7.66 7.33 8.32 7.66 9 8 C8.01 8 7.02 8 6 8 C4.39453125 6.25 4.39453125 6.25 2.8125 4 C2.28269531 3.2575 1.75289062 2.515 1.20703125 1.75 C0.80871094 1.1725 0.41039062 0.595 0 0 Z " fill="#D24D5F" transform="translate(236,241)"/>
<path d="M0 0 C0.99 0.66 1.98 1.32 3 2 C2.67 2.99 2.34 3.98 2 5 C0.35 5 -1.3 5 -3 5 C-3.33 5.66 -3.66 6.32 -4 7 C-3.6875 4.625 -3.6875 4.625 -3 2 C-2.01 1.34 -1.02 0.68 0 0 Z " fill="#D40424" transform="translate(110,169)"/>
<path d="M0 0 C0.66 0 1.32 0 2 0 C3.42944945 2.35438733 4.08661261 3.48032433 3.625 6.25 C3.41875 6.8275 3.2125 7.405 3 8 C2.34 8 1.68 8 1 8 C0.34 5.69 -0.32 3.38 -1 1 C-0.67 0.67 -0.34 0.34 0 0 Z " fill="#CC0724" transform="translate(381,161)"/>
<path d="M0 0 C2.64 0.33 5.28 0.66 8 1 C8.33 2.65 8.66 4.3 9 6 C6.83125748 5.49396008 5.00032373 5.00016187 3 4 C3 3.34 3 2.68 3 2 C2.01 1.67 1.02 1.34 0 1 C0 0.67 0 0.34 0 0 Z " fill="#CF3346" transform="translate(346,151)"/>
<path d="M0 0 C0 0.66 0 1.32 0 2 C-1.2065625 2.433125 -1.2065625 2.433125 -2.4375 2.875 C-5.1326468 3.73262568 -5.1326468 3.73262568 -6 6 C-6.66 4.35 -7.32 2.7 -8 1 C-5.07175348 0.02391783 -3.04386724 -0.08226668 0 0 Z " fill="#CD2B42" transform="translate(186,123)"/>
<path d="M0 0 C2.5 1.375 2.5 1.375 5 3 C5 3.66 5 4.32 5 5 C6.32 5.66 7.64 6.32 9 7 C7.68 7.33 6.36 7.66 5 8 C4.67 7.01 4.34 6.02 4 5 C3.01 4.67 2.02 4.34 1 4 C0.3125 1.9375 0.3125 1.9375 0 0 Z " fill="#D34A57" transform="translate(320,107)"/>
<path d="M0 0 C-0.33 1.65 -0.66 3.3 -1 5 C-3.64 5.33 -6.28 5.66 -9 6 C-3.15384615 0 -3.15384615 0 0 0 Z " fill="#CF3547" transform="translate(225,71)"/>
<path d="M0 0 C0.33 0.66 0.66 1.32 1 2 C0.71125 2.70125 0.4225 3.4025 0.125 4.125 C-1.30624915 7.78263671 -1.60300314 11.09619753 -2 15 C-2.33 15 -2.66 15 -3 15 C-3 11.04 -3 7.08 -3 3 C-2.34 3 -1.68 3 -1 3 C-0.67 2.01 -0.34 1.02 0 0 Z " fill="#D54D5C" transform="translate(94,205)"/>
<path d="M0 0 C-1 3 -1 3 -3.375 4.75 C-6 6 -6 6 -9 5 C-8.34 5 -7.68 5 -7 5 C-7 4.34 -7 3.68 -7 3 C-4.4385343 0.70351351 -3.52032428 0 0 0 Z " fill="#CF3D4D" transform="translate(113,166)"/>
<path d="M0 0 C2.31 0.66 4.62 1.32 7 2 C7 3.65 7 5.3 7 7 C5.83040013 6.02433888 4.66438823 5.044375 3.5 4.0625 C2.8503125 3.51722656 2.200625 2.97195313 1.53125 2.41015625 C1.0259375 1.94480469 0.520625 1.47945313 0 1 C0 0.67 0 0.34 0 0 Z " fill="#CE3C4D" transform="translate(88,416)"/>
<path d="M0 0 C4.455 0.99 4.455 0.99 9 2 C5.23312136 3.88343932 3.97041037 4.22057835 0 4 C0 2.68 0 1.36 0 0 Z " fill="#CF3849" transform="translate(270,387)"/>
<path d="M0 0 C3.65316671 1.24976756 4.78065836 1.67098753 7 5 C6.01 5.33 5.02 5.66 4 6 C3.67 5.34 3.34 4.68 3 4 C2.01 3.67 1.02 3.34 0 3 C0 2.01 0 1.02 0 0 Z " fill="#CC3244" transform="translate(221,357)"/>
<path d="M0 0 C0.33 1.32 0.66 2.64 1 4 C-0.9375 6.25 -0.9375 6.25 -3 8 C-3.99 7.67 -4.98 7.34 -6 7 C-4.02 4.69 -2.04 2.38 0 0 Z " fill="#D44651" transform="translate(311,323)"/>
<path d="M0 0 C1.32 0.33 2.64 0.66 4 1 C4 2.65 4 4.3 4 6 C2.68 5.67 1.36 5.34 0 5 C0 3.35 0 1.7 0 0 Z " fill="#D40325" transform="translate(242,241)"/>
<path d="M0 0 C2.5 1.375 2.5 1.375 5 3 C5 3.66 5 4.32 5 5 C5.99 5.33 6.98 5.66 8 6 C5 7 5 7 2 6 C0.8125 2.9375 0.8125 2.9375 0 0 Z " fill="#D25158" transform="translate(383,161)"/>
<path d="M0 0 C0.99 0 1.98 0 3 0 C2.60196439 2.88575819 2.20990931 3.82189513 -0.0625 5.75 C-0.701875 6.1625 -1.34125 6.575 -2 7 C-1.125 1.125 -1.125 1.125 0 0 Z " fill="#CF2639" transform="translate(210,98)"/>
<path d="M0 0 C1.32 0.66 2.64 1.32 4 2 C2.35 3.65 0.7 5.3 -1 7 C-0.67 4.69 -0.34 2.38 0 0 Z " fill="#D94A5B" transform="translate(413,409)"/>
<path d="M0 0 C0 0.66 0 1.32 0 2 C-3.78187881 3.83691257 -5.94568308 4.15837626 -10 3 C-4 0 -4 0 0 0 Z " fill="#C32A3A" transform="translate(196,399)"/>
<path d="M0 0 C1.051875 0.495 1.051875 0.495 2.125 1 C5.26003116 2.09044562 7.70563182 2.15322643 11 2 C10.67 2.66 10.34 3.32 10 4 C7.36 4 4.72 4 2 4 C1.34 2.68 0.68 1.36 0 0 Z " fill="#D14654" transform="translate(243,373)"/>
<path d="M0 0 C0.66 0.33 1.32 0.66 2 1 C1.67 1.66 1.34 2.32 1 3 C0.34 3 -0.32 3 -1 3 C-1 3.66 -1 4.32 -1 5 C-2.98 5.33 -4.96 5.66 -7 6 C-5.1875 4 -5.1875 4 -3 2 C-2.01 2 -1.02 2 0 2 C0 1.34 0 0.68 0 0 Z " fill="#CE4651" transform="translate(261,369)"/>
<path d="M0 0 C0.99 0.33 1.98 0.66 3 1 C2.67 1.66 2.34 2.32 2 3 C1.34 3 0.68 3 0 3 C-0.66 4.32 -1.32 5.64 -2 7 C-2.6875 5.1875 -2.6875 5.1875 -3 3 C-1.5625 1.25 -1.5625 1.25 0 0 Z " fill="#D03A4A" transform="translate(325,329)"/>
<path d="M0 0 C0.99 0.33 1.98 0.66 3 1 C2.43628586 4.26954202 1.50037734 5.82575883 -1 8 C-1.33 6.68 -1.66 5.36 -2 4 C-1.34 3.67 -0.68 3.34 0 3 C0 2.01 0 1.02 0 0 Z " fill="#D44049" transform="translate(333,316)"/>
<path d="M0 0 C0.33 0 0.66 0 1 0 C1.125 5.75 1.125 5.75 0 8 C-0.66 8 -1.32 8 -2 8 C-2.33 6.02 -2.66 4.04 -3 2 C-2.34 2 -1.68 2 -1 2 C-0.67 1.34 -0.34 0.68 0 0 Z " fill="#CA1D36" transform="translate(347,293)"/>
<path d="M0 0 C1.98 0.99 1.98 0.99 4 2 C4 2.66 4 3.32 4 4 C4.99 4.33 5.98 4.66 7 5 C4.3333581 6.33332095 2.83319697 5.67102033 0 5 C0 3.35 0 1.7 0 0 Z " fill="#CF404F" transform="translate(235,218)"/>
<path d="M0 0 C2.97 0.99 5.94 1.98 9 3 C8.34 3.66 7.68 4.32 7 5 C4.0625 4.1875 4.0625 4.1875 1 3 C0.67 2.01 0.34 1.02 0 0 Z " fill="#CF3B4B" transform="translate(339,410)"/>
<path d="M0 0 C2.64 1.98 5.28 3.96 8 6 C6.68 6.33 5.36 6.66 4 7 C1.03460313 4.91323924 0.92341871 3.69367485 0 0 Z " fill="#D64E5B" transform="translate(101,406)"/>
<path d="M0 0 C1.65 0 3.3 0 5 0 C5 0.66 5 1.32 5 2 C1.49223216 3.60355101 -1.14354879 4.22036864 -5 4 C-4.0409375 3.8453125 -4.0409375 3.8453125 -3.0625 3.6875 C-2.381875 3.460625 -1.70125 3.23375 -1 3 C-0.67 2.01 -0.34 1.02 0 0 Z " fill="#CB414E" transform="translate(213,407)"/>
<path d="M0 0 C0.66 0.33 1.32 0.66 2 1 C0.55609075 4.80666984 -1.34952803 6.26602582 -5 8 C-5.66 7.67 -6.32 7.34 -7 7 C-5.47005208 5.76302083 -3.94010417 4.52604167 -2.41015625 3.2890625 C-0.86733563 2.0333609 -0.86733563 2.0333609 0 0 Z " fill="#D44859" transform="translate(285,349)"/>
<path d="M0 0 C3 1 3 1 4.0625 2.9375 C4.371875 3.618125 4.68125 4.29875 5 5 C5.66 5.66 6.32 6.32 7 7 C7 7.66 7 8.32 7 9 C6.34 9 5.68 9 5 9 C4.34 7.35 3.68 5.7 3 4 C2.34 4 1.68 4 1 4 C0.67 2.68 0.34 1.36 0 0 Z " fill="#CF4850" transform="translate(168,323)"/>
<path d="M0 0 C0.66 0 1.32 0 2 0 C2 0.66 2 1.32 2 2 C2.99 2 3.98 2 5 2 C4.67 2.99 4.34 3.98 4 5 C3.01 5 2.02 5 1 5 C1 4.34 1 3.68 1 3 C0.34 3 -0.32 3 -1 3 C-0.67 2.01 -0.34 1.02 0 0 Z " fill="#C82239" transform="translate(234,236)"/>
<path d="M0 0 C0.33 0.66 0.66 1.32 1 2 C2.93330603 3.09166275 2.93330603 3.09166275 5 4 C5.66 4.33 6.32 4.66 7 5 C6.67 5.66 6.34 6.32 6 7 C4.68 6.34 3.36 5.68 2 5 C2 4.34 2 3.68 2 3 C1.01 3 0.02 3 -1 3 C-0.67 2.01 -0.34 1.02 0 0 Z " fill="#CE4955" transform="translate(402,177)"/>
<path d="M0 0 C2.475 0.495 2.475 0.495 5 1 C5.33 2.65 5.66 4.3 6 6 C4.68 5.34 3.36 4.68 2 4 C2 3.01 2 2.02 2 1 C1.34 0.67 0.68 0.34 0 0 Z " fill="#CC263C" transform="translate(363,164)"/>
<path d="M0 0 C2.31 0.66 4.62 1.32 7 2 C7 3.65 7 5.3 7 7 C5.82780457 6.21654285 4.66236332 5.42297164 3.5 4.625 C2.8503125 4.18414062 2.200625 3.74328125 1.53125 3.2890625 C1.0259375 2.86367187 0.520625 2.43828125 0 2 C0 1.34 0 0.68 0 0 Z " fill="#D03A4C" transform="translate(306,116)"/>
<path d="M0 0 C0.66 0.33 1.32 0.66 2 1 C2 1.66 2 2.32 2 3 C2.66 3 3.32 3 4 3 C3.67 3.99 3.34 4.98 3 6 C0.525 5.01 0.525 5.01 -2 4 C-2 3.34 -2 2.68 -2 2 C-1.34 2 -0.68 2 0 2 C0 1.34 0 0.68 0 0 Z " fill="#CA0724" transform="translate(299,105)"/>
<path d="M0 0 C2.475 0.495 2.475 0.495 5 1 C4.34 2.65 3.68 4.3 3 6 C2.34 6 1.68 6 1 6 C0.67 4.02 0.34 2.04 0 0 Z " fill="#D12840" transform="translate(331,408)"/>
<path d="M0 0 C1 2 1 2 0.375 4.0625 C-1 6 -1 6 -3.625 6.75 C-4.800625 6.87375 -4.800625 6.87375 -6 7 C-4.02 4.69 -2.04 2.38 0 0 Z " fill="#D95663" transform="translate(401,403)"/>
<path d="M0 0 C0.66 0 1.32 0 2 0 C2 1.32 2 2.64 2 4 C2.66 4 3.32 4 4 4 C4 5.98 4 7.96 4 10 C1.16625119 6.79663178 0.4794463 4.21912747 0 0 Z " fill="#CE3E4D" transform="translate(77,396)"/>
<path d="M0 0 C3 2 3 2 3.6875 4.625 C3.8421875 5.800625 3.8421875 5.800625 4 7 C2.68 6.67 1.36 6.34 0 6 C0 4.02 0 2.04 0 0 Z " fill="#CD2539" transform="translate(163,284)"/>
<path d="M0 0 C0.99 0.99 1.98 1.98 3 3 C2.34 4.98 1.68 6.96 1 9 C0.67 9 0.34 9 0 9 C0 6.03 0 3.06 0 0 Z " fill="#CE3042" transform="translate(163,236)"/>
<path d="M0 0 C0.99 0.33 1.98 0.66 3 1 C3 1.66 3 2.32 3 3 C3.639375 3.28875 4.27875 3.5775 4.9375 3.875 C7 5 7 5 8 7 C6.35 6.67 4.7 6.34 3 6 C2.67 4.68 2.34 3.36 2 2 C1.34 2 0.68 2 0 2 C0 1.34 0 0.68 0 0 Z " fill="#D35A65" transform="translate(370,150)"/>
<path d="M0 0 C3.26460973 1.80412643 4.88929795 2.83394693 7 6 C5.35 6 3.7 6 2 6 C2 4.68 2 3.36 2 2 C1.34 2 0.68 2 0 2 C0 1.34 0 0.68 0 0 Z " fill="#D85965" transform="translate(330,116)"/>
<path d="M0 0 C0.99 0.33 1.98 0.66 3 1 C1 4 1 4 -2.125 4.6875 C-3.07375 4.790625 -4.0225 4.89375 -5 5 C-3.35 3.35 -1.7 1.7 0 0 Z " fill="#CC3443" transform="translate(195,94)"/>
<path d="M0 0 C2.97 0.495 2.97 0.495 6 1 C4.3545622 2.68762851 2.68711423 4.3540349 1 6 C0.67 6 0.34 6 0 6 C0 4.02 0 2.04 0 0 Z " fill="#D34457" transform="translate(221,88)"/>
<path d="M0 0 C1.65 0.33 3.3 0.66 5 1 C1.71536341 3.18975773 -1.20696275 3.99806563 -5 5 C-4.67 4.01 -4.34 3.02 -4 2 C-2.68 2 -1.36 2 0 2 C0 1.34 0 0.68 0 0 Z " fill="#CF505A" transform="translate(236,81)"/>
<path d="M0 0 C3.77545388 1.09068668 6.47043472 1.9083091 9 5 C8.01 5.33 7.02 5.66 6 6 C5.67 5.34 5.34 4.68 5 4 C3.35636866 3.27840576 1.68949614 2.60648579 0 2 C0 1.34 0 0.68 0 0 Z " fill="#CE4551" transform="translate(273,70)"/>
</svg>
